<?xml version="1.0" encoding="utf-8" standalone="no"?>
<!DOCTYPE svg PUBLIC "-//W3C//DTD SVG 1.1//EN"
  "http://www.w3.org/Graphics/SVG/1.1/DTD/svg11.dtd">
<svg xmlns:xlink="http://www.w3.org/1999/xlink" width="439.370079pt" height="221.102362pt" viewBox="0 0 439.370079 221.102362" xmlns="http://www.w3.org/2000/svg" version="1.1">
 <metadata>
  <rdf:RDF xmlns:dc="http://purl.org/dc/elements/1.1/" xmlns:cc="http://creativecommons.org/ns#" xmlns:rdf="http://www.w3.org/1999/02/22-rdf-syntax-ns#">
   <cc:Work>
    <dc:type rdf:resource="http://purl.org/dc/dcmitype/StillImage"/>
    <dc:date>2026-09-12T23:29:48.426968</dc:date>
    <dc:format>image/svg+xml</dc:format>
    <dc:creator>
     <cc:Agent>
      <dc:title>Matplotlib v3.10.9, https://matplotlib.org/</dc:title>
     </cc:Agent>
    </dc:creator>
   </cc:Work>
  </rdf:RDF>
 </metadata>
 <defs>
  <style type="text/css">*{stroke-linejoin: round; stroke-linecap: butt}</style>
 </defs>
 <g id="figure_1">
  <g id="patch_1">
   <path d="M 0 221.102362 
L 439.370079 221.102362 
L 439.370079 0 
L 0 0 
z
" style="fill: #ffffff"/>
  </g>
  <g id="axes_1">
   <g id="patch_2">
    <path d="M 52.724409 111.458268 
L 426.188976 111.458268 
L 426.188976 30.954331 
L 52.724409 30.954331 
z
" style="fill: #ffffff"/>
   </g>
   <g id="matplotlib.axis_1">
    <g id="xtick_1">
     <g id="line2d_1">
      <defs>
       <path id="m32222cd6f7" d="M 0 0 
L 0 2.5 
" style="stroke: #30353b; stroke-width: 0.6"/>
      </defs>
      <g>
       <use xlink:href="#m32222cd6f7" x="52.724409" y="111.458268" style="fill: #30353b; stroke: #30353b; stroke-width: 0.6"/>
      </g>
     </g>
    </g>
    <g id="xtick_2">
     <g id="line2d_2">
      <g>
       <use xlink:href="#m32222cd6f7" x="146.090551" y="111.458268" style="fill: #30353b; stroke: #30353b; stroke-width: 0.6"/>
      </g>
     </g>
    </g>
    <g id="xtick_3">
     <g id="line2d_3">
      <g>
       <use xlink:href="#m32222cd6f7" x="239.456693" y="111.458268" style="fill: #30353b; stroke: #30353b; stroke-width: 0.6"/>
      </g>
     </g>
    </g>
    <g id="xtick_4">
     <g id="line2d_4">
      <g>
       <use xlink:href="#m32222cd6f7" x="332.822835" y="111.458268" style="fill: #30353b; stroke: #30353b; stroke-width: 0.6"/>
      </g>
     </g>
    </g>
    <g id="xtick_5">
     <g id="line2d_5">
      <g>
       <use xlink:href="#m32222cd6f7" x="426.188976" y="111.458268" style="fill: #30353b; stroke: #30353b; stroke-width: 0.6"/>
      </g>
     </g>
    </g>
   </g>
   <g id="matplotlib.axis_2">
    <g id="ytick_1">
     <g id="line2d_6">
      <path d="M 52.724409 111.458268 
L 426.188976 111.458268 
" clip-path="url(#p2096a00d5f)" style="fill: none; stroke: #e4e6e8; stroke-width: 0.55; stroke-linecap: square"/>
     </g>
     <g id="line2d_7">
      <defs>
       <path id="meb17bb7f0b" d="M 0 0 
L -2.5 0 
" style="stroke: #30353b; stroke-width: 0.6"/>
      </defs>
      <g>
       <use xlink:href="#meb17bb7f0b" x="52.724409" y="111.458268" style="fill: #30353b; stroke: #30353b; stroke-width: 0.6"/>
      </g>
     </g>
     <g id="text_1">
      <!-- 0 -->
      <g style="fill: #30353b" transform="translate(42.033159 114.655768) scale(0.08 -0.08)">
       <defs>
        <path id="MicrosoftYaHei-30" d="M 284 2325 
Q 284 3606 709 4264 
Q 1134 4922 1941 4922 
Q 3478 4922 3478 2441 
Q 3478 1216 3045 567 
Q 2613 -81 1831 -81 
Q 1094 -81 689 534 
Q 284 1150 284 2325 
z
M 909 2353 
Q 909 425 1888 425 
Q 2850 425 2850 2384 
Q 2850 4413 1906 4413 
Q 909 4413 909 2353 
z
" transform="scale(0.015625)"/>
       </defs>
       <use xlink:href="#MicrosoftYaHei-30"/>
      </g>
     </g>
    </g>
    <g id="ytick_2">
     <g id="line2d_8">
      <path d="M 52.724409 91.314486 
L 426.188976 91.314486 
" clip-path="url(#p2096a00d5f)" style="fill: none; stroke: #e4e6e8; stroke-width: 0.55; stroke-linecap: square"/>
     </g>
     <g id="line2d_9">
      <g>
       <use xlink:href="#meb17bb7f0b" x="52.724409" y="91.314486" style="fill: #30353b; stroke: #30353b; stroke-width: 0.6"/>
      </g>
     </g>
     <g id="text_2">
      <!-- 2000 -->
      <g style="fill: #30353b" transform="translate(27.959409 94.511986) scale(0.08 -0.08)">
       <defs>
        <path id="MicrosoftYaHei-32" d="M 2666 3572 
Q 2666 3963 2419 4186 
Q 2172 4409 1747 4409 
Q 1447 4409 1140 4256 
Q 834 4103 569 3819 
L 569 4413 
Q 806 4659 1107 4790 
Q 1409 4922 1816 4922 
Q 2472 4922 2872 4570 
Q 3272 4219 3272 3619 
Q 3272 3084 3026 2693 
Q 2781 2303 2188 1894 
Q 1581 1475 1376 1294 
Q 1172 1113 1090 947 
Q 1009 781 1009 544 
L 3416 544 
L 3416 0 
L 372 0 
L 372 241 
Q 372 659 486 951 
Q 600 1244 862 1520 
Q 1125 1797 1681 2184 
Q 2250 2584 2458 2886 
Q 2666 3188 2666 3572 
z
" transform="scale(0.015625)"/>
       </defs>
       <use xlink:href="#MicrosoftYaHei-32"/>
       <use xlink:href="#MicrosoftYaHei-30" transform="translate(58.642578 0)"/>
       <use xlink:href="#MicrosoftYaHei-30" transform="translate(117.285156 0)"/>
       <use xlink:href="#MicrosoftYaHei-30" transform="translate(175.927734 0)"/>
      </g>
     </g>
    </g>
    <g id="ytick_3">
     <g id="line2d_10">
      <path d="M 52.724409 71.170704 
L 426.188976 71.170704 
" clip-path="url(#p2096a00d5f)" style="fill: none; stroke: #e4e6e8; stroke-width: 0.55; stroke-linecap: square"/>
     </g>
     <g id="line2d_11">
      <g>
       <use xlink:href="#meb17bb7f0b" x="52.724409" y="71.170704" style="fill: #30353b; stroke: #30353b; stroke-width: 0.6"/>
      </g>
     </g>
     <g id="text_3">
      <!-- 4000 -->
      <g style="fill: #30353b" transform="translate(27.959409 74.368204) scale(0.08 -0.08)">
       <defs>
        <path id="MicrosoftYaHei-34" d="M 2906 4841 
L 2906 1644 
L 3631 1644 
L 3631 1138 
L 2906 1138 
L 2906 0 
L 2313 0 
L 2313 1138 
L 53 1138 
L 53 1616 
Q 656 2294 1265 3178 
Q 1875 4063 2272 4841 
L 2906 4841 
z
M 741 1644 
L 2313 1644 
L 2313 3950 
Q 1988 3366 1616 2817 
Q 1244 2269 741 1644 
z
" transform="scale(0.015625)"/>
       </defs>
       <use xlink:href="#MicrosoftYaHei-34"/>
       <use xlink:href="#MicrosoftYaHei-30" transform="translate(58.642578 0)"/>
       <use xlink:href="#MicrosoftYaHei-30" transform="translate(117.285156 0)"/>
       <use xlink:href="#MicrosoftYaHei-30" transform="translate(175.927734 0)"/>
      </g>
     </g>
    </g>
    <g id="ytick_4">
     <g id="line2d_12">
      <path d="M 52.724409 51.026922 
L 426.188976 51.026922 
" clip-path="url(#p2096a00d5f)" style="fill: none; stroke: #e4e6e8; stroke-width: 0.55; stroke-linecap: square"/>
     </g>
     <g id="line2d_13">
      <g>
       <use xlink:href="#meb17bb7f0b" x="52.724409" y="51.026922" style="fill: #30353b; stroke: #30353b; stroke-width: 0.6"/>
      </g>
     </g>
     <g id="text_4">
      <!-- 6000 -->
      <g style="fill: #30353b" transform="translate(27.959409 54.224422) scale(0.08 -0.08)">
       <defs>
        <path id="MicrosoftYaHei-36" d="M 3181 4219 
Q 2803 4413 2391 4413 
Q 1763 4413 1381 3866 
Q 1000 3319 994 2372 
L 1009 2372 
Q 1353 3038 2106 3038 
Q 2734 3038 3109 2628 
Q 3484 2219 3484 1541 
Q 3484 831 3051 375 
Q 2619 -81 1947 -81 
Q 1209 -81 789 495 
Q 369 1072 369 2131 
Q 369 3413 920 4167 
Q 1472 4922 2372 4922 
Q 2888 4922 3181 4781 
L 3181 4219 
z
M 1031 1584 
Q 1031 1106 1286 765 
Q 1541 425 1963 425 
Q 2363 425 2613 719 
Q 2863 1013 2863 1475 
Q 2863 1975 2627 2253 
Q 2391 2531 1956 2531 
Q 1544 2531 1287 2250 
Q 1031 1969 1031 1584 
z
" transform="scale(0.015625)"/>
       </defs>
       <use xlink:href="#MicrosoftYaHei-36"/>
       <use xlink:href="#MicrosoftYaHei-30" transform="translate(58.642578 0)"/>
       <use xlink:href="#MicrosoftYaHei-30" transform="translate(117.285156 0)"/>
       <use xlink:href="#MicrosoftYaHei-30" transform="translate(175.927734 0)"/>
      </g>
     </g>
    </g>
    <g id="text_5">
     <!-- 功率 / kW -->
     <g style="fill: #30353b" transform="translate(21.846363 90.675948) rotate(-90) scale(0.085 -0.085)">
      <defs>
       <path id="MicrosoftYaHei-529f" d="M 2500 3978 
L 3475 3978 
Q 3488 4538 3494 5278 
L 4000 5278 
Q 3991 4531 3975 3978 
L 5969 3978 
Q 5913 1791 5844 291 
Q 5775 -691 4956 -709 
Q 4413 -716 3756 -684 
Q 3713 -397 3656 -122 
Q 4306 -197 4844 -191 
Q 5313 -178 5344 378 
Q 5425 1847 5450 3497 
L 3963 3497 
Q 3950 3003 3931 2734 
Q 3813 266 1938 -847 
Q 1800 -653 1575 -422 
Q 3325 553 3431 2772 
Q 3450 3063 3463 3497 
L 2500 3497 
L 2500 3978 
z
M 81 822 
Q 619 941 1119 1056 
L 1119 4134 
L 169 4134 
L 169 4622 
L 2675 4622 
L 2675 4134 
L 1625 4134 
L 1625 1178 
Q 2166 1313 2656 1447 
Q 2669 1122 2700 947 
Q 1594 672 225 291 
L 81 822 
z
" transform="scale(0.015625)"/>
       <path id="MicrosoftYaHei-7387" d="M 2525 2009 
Q 2622 2016 3928 2081 
Q 3772 2300 3625 2491 
L 3963 2703 
Q 4413 2203 4794 1653 
L 4394 1403 
Q 4284 1569 4178 1725 
Q 2991 1659 2213 1597 
Q 2075 1584 1881 1541 
L 1725 1966 
Q 1913 2028 2006 2084 
Q 2534 2441 3050 2913 
Q 2597 2894 2275 2866 
Q 2144 2847 1988 2809 
L 1800 3191 
Q 1956 3247 2088 3366 
Q 2509 3722 2875 4228 
L 231 4228 
L 231 4666 
L 3031 4666 
Q 2878 4944 2744 5153 
L 3194 5372 
Q 3438 5000 3616 4666 
L 6175 4666 
L 6175 4228 
L 3053 4228 
L 3350 4072 
Q 2844 3553 2494 3247 
Q 2850 3256 3425 3269 
Q 3675 3519 3925 3797 
L 4356 3547 
Q 3363 2603 2525 2009 
z
M 144 991 
L 2994 991 
L 2994 1541 
L 3488 1541 
L 3488 991 
L 6275 991 
L 6275 553 
L 3488 553 
L 3488 -853 
L 2994 -853 
L 2994 553 
L 144 553 
L 144 991 
z
M 1719 2672 
L 1944 2303 
Q 1200 1866 425 1409 
L 163 1828 
Q 813 2134 1719 2672 
z
M 4856 2678 
Q 5750 2172 6250 1816 
L 5975 1409 
Q 5331 1909 4600 2341 
L 4856 2678 
z
M 5994 3591 
Q 5519 3178 4963 2809 
L 4644 3141 
Q 5244 3534 5638 3928 
L 5994 3591 
z
M 363 3634 
L 681 3941 
Q 1200 3528 1588 3159 
L 1238 2816 
Q 875 3197 363 3634 
z
" transform="scale(0.015625)"/>
       <path id="MicrosoftYaHei-20" transform="scale(0.015625)"/>
       <path id="MicrosoftYaHei-2f" d="M 2791 4841 
L 469 -803 
L -103 -803 
L 2219 4841 
L 2791 4841 
z
" transform="scale(0.015625)"/>
       <path id="MicrosoftYaHei-6b" d="M 3484 0 
L 2650 0 
L 1172 1666 
L 1159 1666 
L 1159 0 
L 547 0 
L 547 5116 
L 1159 5116 
L 1159 1872 
L 1172 1872 
L 2575 3456 
L 3363 3456 
L 1800 1794 
L 3484 0 
z
" transform="scale(0.015625)"/>
       <path id="MicrosoftYaHei-57" d="M 6431 4841 
L 5075 0 
L 4347 0 
L 3372 3488 
Q 3306 3725 3294 3988 
L 3281 3988 
Q 3263 3728 3194 3494 
L 2209 0 
L 1488 0 
L 84 4841 
L 775 4841 
L 1763 1184 
Q 1828 938 1841 688 
L 1859 688 
Q 1875 875 1963 1184 
L 3009 4841 
L 3625 4841 
L 4625 1156 
Q 4675 975 4706 694 
L 4719 694 
Q 4734 897 4809 1169 
L 5759 4841 
L 6431 4841 
z
" transform="scale(0.015625)"/>
      </defs>
      <use xlink:href="#MicrosoftYaHei-529f"/>
      <use xlink:href="#MicrosoftYaHei-7387" transform="translate(100 0)"/>
      <use xlink:href="#MicrosoftYaHei-20" transform="translate(200 0)"/>
      <use xlink:href="#MicrosoftYaHei-2f" transform="translate(229.589844 0)"/>
      <use xlink:href="#MicrosoftYaHei-20" transform="translate(272.314453 0)"/>
      <use xlink:href="#MicrosoftYaHei-6b" transform="translate(301.904297 0)"/>
      <use xlink:href="#MicrosoftYaHei-57" transform="translate(356.347656 0)"/>
     </g>
    </g>
   </g>
   <g id="patch_3">
    <path d="M 52.724409 111.458268 
L 52.724409 111.458268 
L 55.317913 111.458268 
L 55.317913 111.458268 
L 57.911417 111.458268 
L 57.911417 111.458268 
L 60.504921 111.458268 
L 60.504921 111.458268 
L 63.098425 111.458268 
L 63.098425 111.458268 
L 65.691929 111.458268 
L 65.691929 111.458268 
L 68.285433 111.458268 
L 68.285433 111.458268 
L 70.878937 111.458268 
L 70.878937 111.458268 
L 73.472441 111.458268 
L 73.472441 111.458268 
L 76.065945 111.458268 
L 76.065945 111.458268 
L 78.659449 111.458268 
L 78.659449 111.458268 
L 81.252953 111.458268 
L 81.252953 111.458268 
L 83.846457 111.458268 
L 83.846457 111.458268 
L 86.439961 111.458268 
L 86.439961 111.458268 
L 89.033465 111.458268 
L 89.033465 111.458268 
L 91.626969 111.458268 
L 91.626969 111.458268 
L 94.220472 111.458268 
L 94.220472 111.458268 
L 96.813976 111.458268 
L 96.813976 111.458268 
L 99.40748 111.458268 
L 99.40748 111.458268 
L 102.000984 111.458268 
L 102.000984 111.458268 
L 104.594488 111.458268 
L 104.594488 111.458268 
L 107.187992 111.458268 
L 107.187992 111.458268 
L 109.781496 111.458268 
L 109.781496 111.458268 
L 112.375 111.458268 
L 112.375 111.458268 
L 114.968504 111.458268 
L 114.968504 111.458268 
L 117.562008 111.458268 
L 117.562008 111.458268 
L 120.155512 111.458268 
L 120.155512 111.458268 
L 122.749016 111.458268 
L 122.749016 111.452231 
L 125.34252 111.452231 
L 125.34252 111.455906 
L 127.936024 111.455906 
L 127.936024 111.455362 
L 130.529528 111.455362 
L 130.529528 111.270144 
L 133.123031 111.270144 
L 133.123031 110.909654 
L 135.716535 110.909654 
L 135.716535 110.360716 
L 138.310039 110.360716 
L 138.310039 109.603425 
L 140.903543 109.603425 
L 140.903543 108.667768 
L 143.497047 108.667768 
L 143.497047 107.544841 
L 146.090551 107.544841 
L 146.090551 106.207989 
L 148.684055 106.207989 
L 148.684055 104.682225 
L 151.277559 104.682225 
L 151.277559 102.955315 
L 153.871063 102.955315 
L 153.871063 100.986781 
L 156.464567 100.986781 
L 156.464567 98.774358 
L 159.058071 98.774358 
L 159.058071 96.263493 
L 161.651575 96.263493 
L 161.651575 93.415375 
L 164.245079 93.415375 
L 164.245079 90.453475 
L 166.838583 90.453475 
L 166.838583 87.474466 
L 169.432087 87.474466 
L 169.432087 84.43362 
L 172.025591 84.43362 
L 172.025591 81.380024 
L 174.619094 81.380024 
L 174.619094 78.329764 
L 177.212598 78.329764 
L 177.212598 75.266325 
L 179.806102 75.266325 
L 179.806102 72.271227 
L 182.399606 72.271227 
L 182.399606 69.34425 
L 184.99311 69.34425 
L 184.99311 66.419131 
L 187.586614 66.419131 
L 187.586614 63.588311 
L 190.180118 63.588311 
L 190.180118 60.878164 
L 192.773622 60.878164 
L 192.773622 58.224169 
L 195.367126 58.224169 
L 195.367126 55.628022 
L 197.96063 55.628022 
L 197.96063 53.158041 
L 200.554134 53.158041 
L 200.554134 50.904746 
L 203.147638 50.904746 
L 203.147638 48.849855 
L 205.741142 48.849855 
L 205.741142 46.901535 
L 208.334646 46.901535 
L 208.334646 44.990024 
L 210.92815 44.990024 
L 210.92815 43.304598 
L 213.521654 43.304598 
L 213.521654 41.815248 
L 216.115157 41.815248 
L 216.115157 40.308363 
L 218.708661 40.308363 
L 218.708661 38.966523 
L 221.302165 38.966523 
L 221.302165 37.902098 
L 223.895669 37.902098 
L 223.895669 37.050312 
L 226.489173 37.050312 
L 226.489173 36.329747 
L 229.082677 36.329747 
L 229.082677 35.710406 
L 231.676181 35.710406 
L 231.676181 35.232144 
L 234.269685 35.232144 
L 234.269685 34.990922 
L 236.863189 34.990922 
L 236.863189 34.901389 
L 239.456693 34.901389 
L 239.456693 34.787852 
L 242.050197 34.787852 
L 242.050197 34.885182 
L 244.643701 34.885182 
L 244.643701 35.373318 
L 247.237205 35.373318 
L 247.237205 36.193662 
L 249.830709 36.193662 
L 249.830709 36.992576 
L 252.424213 36.992576 
L 252.424213 37.804565 
L 255.017717 37.804565 
L 255.017717 38.995636 
L 257.61122 38.995636 
L 257.61122 40.41984 
L 260.204724 40.41984 
L 260.204724 41.857408 
L 262.798228 41.857408 
L 262.798228 43.247318 
L 265.391732 43.247318 
L 265.391732 44.909659 
L 267.985236 44.909659 
L 267.985236 46.872182 
L 270.57874 46.872182 
L 270.57874 48.871379 
L 273.172244 48.871379 
L 273.172244 51.019759 
L 275.765748 51.019759 
L 275.765748 53.373858 
L 278.359252 53.373858 
L 278.359252 55.846256 
L 280.952756 55.846256 
L 280.952756 58.39168 
L 283.54626 58.39168 
L 283.54626 61.000963 
L 286.139764 61.000963 
L 286.139764 63.682773 
L 288.733268 63.682773 
L 288.733268 66.424587 
L 291.326772 66.424587 
L 291.326772 69.275149 
L 293.920276 69.275149 
L 293.920276 72.284725 
L 296.51378 72.284725 
L 296.51378 75.253903 
L 299.107283 75.253903 
L 299.107283 78.18187 
L 301.700787 78.18187 
L 301.700787 81.258461 
L 304.294291 81.258461 
L 304.294291 84.390936 
L 306.887795 84.390936 
L 306.887795 87.45516 
L 309.481299 87.45516 
L 309.481299 90.416833 
L 312.074803 90.416833 
L 312.074803 93.418676 
L 314.668307 93.418676 
L 314.668307 96.333024 
L 317.261811 96.333024 
L 317.261811 98.816309 
L 319.855315 98.816309 
L 319.855315 101.020442 
L 322.448819 101.020442 
L 322.448819 103.030336 
L 325.042323 103.030336 
L 325.042323 104.758131 
L 327.635827 104.758131 
L 327.635827 106.254365 
L 330.229331 106.254365 
L 330.229331 107.563738 
L 332.822835 107.563738 
L 332.822835 108.680508 
L 335.416339 108.680508 
L 335.416339 109.615589 
L 338.009843 109.615589 
L 338.009843 110.367065 
L 340.603346 110.367065 
L 340.603346 110.911242 
L 343.19685 110.911242 
L 343.19685 111.270357 
L 345.790354 111.270357 
L 345.790354 111.455495 
L 348.383858 111.455495 
L 348.383858 111.455955 
L 350.977362 111.455955 
L 350.977362 111.452218 
L 353.570866 111.452218 
L 353.570866 111.458268 
L 356.16437 111.458268 
L 356.16437 111.458268 
L 358.757874 111.458268 
L 358.757874 111.458268 
L 361.351378 111.458268 
L 361.351378 111.458268 
L 363.944882 111.458268 
L 363.944882 111.458268 
L 366.538386 111.458268 
L 366.538386 111.458268 
L 369.13189 111.458268 
L 369.13189 111.458268 
L 371.725394 111.458268 
L 371.725394 111.458268 
L 374.318898 111.458268 
L 374.318898 111.458268 
L 376.912402 111.458268 
L 376.912402 111.458268 
L 379.505906 111.458268 
L 379.505906 111.458268 
L 382.099409 111.458268 
L 382.099409 111.458268 
L 384.692913 111.458268 
L 384.692913 111.458268 
L 387.286417 111.458268 
L 387.286417 111.458268 
L 389.879921 111.458268 
L 389.879921 111.458268 
L 392.473425 111.458268 
L 392.473425 111.458268 
L 395.066929 111.458268 
L 395.066929 111.458268 
L 397.660433 111.458268 
L 397.660433 111.458268 
L 400.253937 111.458268 
L 400.253937 111.458268 
L 402.847441 111.458268 
L 402.847441 111.458268 
L 405.440945 111.458268 
L 405.440945 111.458268 
L 408.034449 111.458268 
L 408.034449 111.458268 
L 410.627953 111.458268 
L 410.627953 111.458268 
L 413.221457 111.458268 
L 413.221457 111.458268 
L 415.814961 111.458268 
L 415.814961 111.458268 
L 418.408465 111.458268 
L 418.408465 111.458268 
L 421.001969 111.458268 
L 421.001969 111.458268 
L 423.595472 111.458268 
L 423.595472 111.458268 
L 426.188976 111.458268 
L 426.188976 111.458268 
" clip-path="url(#p2096a00d5f)" style="fill: #d9a441; opacity: 0.25"/>
   </g>
   <g id="patch_4">
    <path d="M 52.724409 76.812508 
L 60.504921 76.767623 
L 60.504921 76.665488 
L 68.285433 76.611136 
L 68.285433 76.537429 
L 76.065945 76.539341 
L 76.065945 76.382981 
L 78.659449 76.382981 
L 78.659449 76.256162 
L 86.439961 76.153979 
L 86.439961 76.079354 
L 99.40748 75.994157 
L 99.40748 75.935453 
L 104.594488 75.831115 
L 104.594488 75.754615 
L 112.375 75.739338 
L 112.375 75.600251 
L 122.749016 75.602062 
L 122.749016 75.394311 
L 130.529528 75.488891 
L 130.529528 75.578999 
L 133.123031 75.578999 
L 133.123031 75.286271 
L 135.716535 75.286271 
L 135.716535 75.403875 
L 138.310039 75.403875 
L 138.310039 76.346458 
L 140.903543 76.346458 
L 140.903543 72.94437 
L 143.497047 72.94437 
L 143.497047 67.161359 
L 146.090551 67.161359 
L 146.090551 66.597942 
L 148.684055 66.597942 
L 148.684055 67.426057 
L 151.277559 67.426057 
L 151.277559 67.212924 
L 156.464567 67.297099 
L 156.464567 66.791691 
L 159.058071 66.791691 
L 159.058071 65.898511 
L 164.245079 65.892307 
L 164.245079 65.672593 
L 166.838583 65.672593 
L 166.838583 65.90067 
L 169.432087 65.90067 
L 169.432087 67.309578 
L 172.025591 67.309578 
L 172.025591 62.000651 
L 174.619094 62.000651 
L 174.619094 53.043993 
L 177.212598 53.043993 
L 177.212598 52.186942 
L 179.806102 52.186942 
L 179.806102 53.564321 
L 182.399606 53.564321 
L 182.399606 53.352944 
L 184.99311 53.352944 
L 184.99311 53.502487 
L 187.586614 53.502487 
L 187.586614 52.797755 
L 190.180118 52.797755 
L 190.180118 51.48761 
L 195.367126 51.440176 
L 195.367126 51.736433 
L 200.554134 51.794574 
L 200.554134 51.957706 
L 210.92815 52.0595 
L 210.92815 52.167496 
L 213.521654 52.167496 
L 213.521654 52.301311 
L 216.115157 52.301311 
L 216.115157 52.456821 
L 218.708661 52.456821 
L 218.708661 52.588118 
L 226.489173 52.651415 
L 226.489173 52.805238 
L 234.269685 52.715021 
L 234.269685 53.918552 
L 236.863189 53.918552 
L 236.863189 55.866862 
L 239.456693 55.866862 
L 239.456693 56.115335 
L 242.050197 56.115335 
L 242.050197 55.917305 
L 244.643701 55.917305 
L 244.643701 56.205597 
L 247.237205 56.205597 
L 247.237205 56.441946 
L 249.830709 56.441946 
L 249.830709 55.397049 
L 252.424213 55.397049 
L 252.424213 53.78909 
L 255.017717 53.78909 
L 255.017717 53.650693 
L 257.61122 53.650693 
L 257.61122 53.900598 
L 265.391732 53.965411 
L 265.391732 54.079529 
L 273.172244 54.178124 
L 273.172244 54.260382 
L 278.359252 54.356178 
L 278.359252 54.409116 
L 283.54626 54.323441 
L 283.54626 54.227221 
L 286.139764 54.227221 
L 286.139764 54.360522 
L 288.733268 54.360522 
L 288.733268 54.487976 
L 296.51378 54.42517 
L 296.51378 54.358104 
L 309.481299 54.39202 
L 309.481299 54.158906 
L 312.074803 54.158906 
L 312.074803 55.018801 
L 314.668307 55.018801 
L 314.668307 56.398137 
L 322.448819 56.418134 
L 322.448819 56.138953 
L 325.042323 56.138953 
L 325.042323 54.836808 
L 327.635827 54.836808 
L 327.635827 60.18013 
L 330.229331 60.18013 
L 330.229331 69.070022 
L 332.822835 69.070022 
L 332.822835 69.934268 
L 335.416339 69.934268 
L 335.416339 68.592947 
L 338.009843 68.592947 
L 338.009843 68.894936 
L 343.19685 68.820545 
L 343.19685 68.688361 
L 356.16437 68.585438 
L 356.16437 68.477534 
L 363.944882 68.464687 
L 363.944882 68.32817 
L 371.725394 68.236147 
L 371.725394 68.210392 
L 379.505906 68.128684 
L 379.505906 67.938012 
L 382.099409 67.938012 
L 382.099409 68.125677 
L 384.692913 68.125677 
L 384.692913 67.920749 
L 387.286417 67.920749 
L 387.286417 66.851794 
L 389.879921 66.851794 
L 389.879921 70.866922 
L 392.473425 70.866922 
L 392.473425 77.589098 
L 395.066929 77.589098 
L 395.066929 78.126418 
L 397.660433 78.126418 
L 397.660433 77.083344 
L 400.253937 77.083344 
L 400.253937 77.395825 
L 405.440945 77.349213 
L 405.440945 77.208958 
L 413.221457 77.143528 
L 413.221457 77.05116 
L 418.408465 76.992447 
L 418.408465 76.914781 
L 423.595472 76.820421 
L 423.595472 76.763364 
L 426.188976 76.763364 
L 426.188976 76.763364 
" clip-path="url(#p2096a00d5f)" style="fill: none; stroke: #30353b; stroke-linejoin: miter"/>
   </g>
   <g id="patch_5">
    <path d="M 52.724409 111.458268 
L 52.724409 30.954331 
" style="fill: none; stroke: #30353b; stroke-width: 0.6; stroke-linejoin: miter; stroke-linecap: square"/>
   </g>
   <g id="patch_6">
    <path d="M 52.724409 111.458268 
L 426.188976 111.458268 
" style="fill: none; stroke: #30353b; stroke-width: 0.6; stroke-linejoin: miter; stroke-linecap: square"/>
   </g>
   <g id="text_6">
    <!-- (a)  供需错峰 -->
    <g style="fill: #30353b" transform="translate(52.724409 22.954331) scale(0.09 -0.09)">
     <defs>
      <path id="MicrosoftYaHei-Bold-28" d="M 1606 -1100 
Q 525 97 525 1853 
Q 525 3550 1606 4841 
L 2431 4841 
Q 1406 3497 1406 1853 
Q 1406 216 2438 -1100 
L 1606 -1100 
z
" transform="scale(0.015625)"/>
      <path id="MicrosoftYaHei-Bold-61" d="M 544 3247 
Q 778 3378 1170 3459 
Q 1563 3541 1841 3541 
Q 3291 3541 3291 2088 
L 3291 0 
L 2331 0 
L 2331 503 
L 2319 503 
Q 1966 -84 1284 -84 
Q 794 -84 498 195 
Q 203 475 203 956 
Q 203 1950 1388 2113 
L 2338 2241 
Q 2338 2844 1709 2844 
Q 1091 2844 544 2469 
L 544 3247 
z
M 1684 1566 
Q 1138 1494 1138 1072 
Q 1138 878 1270 759 
Q 1403 641 1628 641 
Q 1938 641 2138 859 
Q 2338 1078 2338 1403 
L 2338 1650 
L 1684 1566 
z
" transform="scale(0.015625)"/>
      <path id="MicrosoftYaHei-Bold-29" d="M 59 -1100 
Q 1097 216 1097 1853 
Q 1097 3484 59 4841 
L 888 4841 
Q 1978 3544 1978 1853 
Q 1978 113 881 -1100 
L 59 -1100 
z
" transform="scale(0.015625)"/>
      <path id="MicrosoftYaHei-Bold-20" transform="scale(0.015625)"/>
      <path id="MicrosoftYaHei-Bold-4f9b" d="M 1288 5278 
L 2081 5047 
Q 1869 4359 1613 3728 
L 1613 -778 
L 844 -778 
L 844 2141 
Q 613 1734 356 1359 
Q 275 1859 106 2484 
Q 806 3578 1288 5278 
z
M 1888 1991 
L 2769 1991 
L 2769 3328 
L 2088 3328 
L 2088 4128 
L 2769 4128 
L 2769 5253 
L 3619 5253 
L 3619 4128 
L 4588 4128 
L 4588 5253 
L 5438 5253 
L 5438 4128 
L 6131 4128 
L 6131 3328 
L 5438 3328 
L 5438 1991 
L 6306 1991 
L 6306 1191 
L 1888 1191 
L 1888 1991 
z
M 3619 1991 
L 4588 1991 
L 4588 3328 
L 3619 3328 
L 3619 1991 
z
M 1900 -291 
Q 2569 353 3106 1109 
L 3813 641 
Q 3275 -78 2538 -841 
Q 2281 -597 1900 -291 
z
M 4988 1084 
Q 5638 441 6288 -284 
L 5563 -828 
Q 5050 -116 4344 628 
L 4988 1084 
z
" transform="scale(0.015625)"/>
      <path id="MicrosoftYaHei-Bold-9700" d="M 313 4253 
L 2819 4253 
L 2819 4516 
L 588 4516 
L 588 5109 
L 5813 5109 
L 5813 4516 
L 3581 4516 
L 3581 4253 
L 6088 4253 
L 6088 2966 
L 5400 2966 
L 5400 3678 
L 3581 3678 
L 3581 2316 
L 2819 2316 
L 2819 3678 
L 1000 3678 
L 1000 2966 
L 313 2966 
L 313 4253 
z
M 1163 3434 
L 2538 3434 
L 2538 3047 
L 1163 3047 
L 1163 3434 
z
M 3875 3434 
L 5238 3434 
L 5238 3047 
L 3875 3047 
L 3875 3434 
z
M 913 2797 
L 2538 2797 
L 2538 2403 
L 913 2403 
L 913 2797 
z
M 3875 2797 
L 5488 2797 
L 5488 2403 
L 3875 2403 
L 3875 2797 
z
M 1444 -797 
L 669 -797 
L 669 1191 
L 2466 1191 
L 2581 1553 
L 175 1553 
L 175 2141 
L 6225 2141 
L 6225 1553 
L 3322 1553 
L 3203 1191 
L 5750 1191 
L 5750 -134 
Q 5750 -834 5063 -834 
L 4438 -834 
Q 4394 -459 4331 -109 
Q 4569 -122 4763 -122 
Q 4981 -122 4981 141 
L 4981 616 
L 4306 616 
L 4306 -647 
L 3550 -647 
L 3550 616 
L 2875 616 
L 2875 -647 
L 2119 -647 
L 2119 616 
L 1444 616 
L 1444 -797 
z
" transform="scale(0.015625)"/>
      <path id="MicrosoftYaHei-Bold-9519" d="M 2263 3866 
L 1138 3866 
Q 1053 3634 959 3422 
L 2175 3422 
L 2175 2716 
L 1594 2716 
L 1594 2078 
L 2363 2078 
L 2363 1372 
L 1594 1372 
L 1594 591 
Q 1913 841 2244 1128 
Q 2269 622 2356 191 
Q 1525 -366 1063 -828 
L 638 -209 
Q 806 -41 806 328 
L 806 1372 
L 100 1372 
L 100 2078 
L 806 2078 
L 806 2716 
L 600 2716 
Q 475 2500 338 2309 
Q 238 2797 81 3316 
Q 544 4147 781 5353 
L 1531 5228 
Q 1453 4884 1363 4566 
L 2263 4566 
L 2263 3866 
z
M 2375 3353 
L 3100 3353 
L 3100 3891 
L 2538 3891 
L 2538 4566 
L 3100 4566 
L 3100 5303 
L 3900 5303 
L 3900 4566 
L 4756 4566 
L 4756 5297 
L 5556 5297 
L 5556 4566 
L 6138 4566 
L 6138 3891 
L 5556 3891 
L 5556 3353 
L 6275 3353 
L 6275 2678 
L 2375 2678 
L 2375 3353 
z
M 3900 3353 
L 4756 3353 
L 4756 3891 
L 3900 3891 
L 3900 3353 
z
M 2625 -822 
L 2625 2353 
L 6019 2353 
L 6019 -809 
L 5219 -809 
L 5219 -509 
L 3425 -509 
L 3425 -822 
L 2625 -822 
z
M 5219 1678 
L 3425 1678 
L 3425 1247 
L 5219 1247 
L 5219 1678 
z
M 3425 166 
L 5219 166 
L 5219 597 
L 3425 597 
L 3425 166 
z
" transform="scale(0.015625)"/>
      <path id="MicrosoftYaHei-Bold-5cf0" d="M 2425 4241 
L 2425 2972 
Q 3169 3116 3738 3353 
Q 3538 3522 3375 3703 
Q 3188 3509 2994 3322 
Q 2756 3603 2531 3797 
Q 3188 4403 3750 5322 
L 4613 5222 
Q 4481 5034 4344 4859 
L 5869 4859 
L 5869 4253 
Q 5588 3759 5106 3372 
Q 5638 3216 6338 3134 
Q 6250 2847 6138 2416 
Q 5069 2603 4400 2916 
Q 3669 2541 2663 2309 
Q 2544 2628 2425 2884 
L 2425 -266 
L 1888 -266 
L 1888 9 
L 250 -116 
L 250 4241 
L 788 4241 
L 788 647 
L 1006 666 
L 1006 5253 
L 1669 5253 
L 1669 716 
L 1888 734 
L 1888 4241 
L 2425 4241 
z
M 2613 566 
L 4013 566 
L 4013 903 
L 2894 903 
L 2894 1428 
L 4013 1428 
L 4013 1766 
L 2794 1766 
L 2794 2291 
L 4013 2291 
L 4013 2584 
L 4788 2584 
L 4788 2291 
L 5994 2291 
L 5994 1766 
L 4788 1766 
L 4788 1428 
L 5925 1428 
L 5925 903 
L 4788 903 
L 4788 566 
L 6213 566 
L 6213 -16 
L 4788 -16 
L 4788 -847 
L 4013 -847 
L 4013 -16 
L 2613 -16 
L 2613 566 
z
M 4381 3691 
Q 4744 3922 4994 4209 
L 3825 4209 
Q 3813 4197 3806 4184 
Q 4038 3916 4381 3691 
z
" transform="scale(0.015625)"/>
     </defs>
     <use xlink:href="#MicrosoftYaHei-Bold-28"/>
     <use xlink:href="#MicrosoftYaHei-Bold-61" transform="translate(38.964844 0)"/>
     <use xlink:href="#MicrosoftYaHei-Bold-29" transform="translate(96.728516 0)"/>
     <use xlink:href="#MicrosoftYaHei-Bold-20" transform="translate(135.693359 0)"/>
     <use xlink:href="#MicrosoftYaHei-Bold-20" transform="translate(165.478516 0)"/>
     <use xlink:href="#MicrosoftYaHei-Bold-4f9b" transform="translate(195.263672 0)"/>
     <use xlink:href="#MicrosoftYaHei-Bold-9700" transform="translate(295.263672 0)"/>
     <use xlink:href="#MicrosoftYaHei-Bold-9519" transform="translate(395.263672 0)"/>
     <use xlink:href="#MicrosoftYaHei-Bold-5cf0" transform="translate(495.263672 0)"/>
    </g>
   </g>
  </g>
  <g id="axes_2">
   <g id="patch_7">
    <path d="M 52.724409 187.937008 
L 426.188976 187.937008 
L 426.188976 147.685039 
L 52.724409 147.685039 
z
" style="fill: #ffffff"/>
   </g>
   <g id="matplotlib.axis_3">
    <g id="xtick_6">
     <g id="line2d_14">
      <g>
       <use xlink:href="#m32222cd6f7" x="52.724409" y="187.937008" style="fill: #30353b; stroke: #30353b; stroke-width: 0.6"/>
      </g>
     </g>
     <g id="text_7">
      <!-- 0 -->
      <g style="fill: #30353b" transform="translate(50.378784 200.332008) scale(0.08 -0.08)">
       <use xlink:href="#MicrosoftYaHei-30"/>
      </g>
     </g>
    </g>
    <g id="xtick_7">
     <g id="line2d_15">
      <g>
       <use xlink:href="#m32222cd6f7" x="146.090551" y="187.937008" style="fill: #30353b; stroke: #30353b; stroke-width: 0.6"/>
      </g>
     </g>
     <g id="text_8">
      <!-- 6 -->
      <g style="fill: #30353b" transform="translate(143.744926 200.332008) scale(0.08 -0.08)">
       <use xlink:href="#MicrosoftYaHei-36"/>
      </g>
     </g>
    </g>
    <g id="xtick_8">
     <g id="line2d_16">
      <g>
       <use xlink:href="#m32222cd6f7" x="239.456693" y="187.937008" style="fill: #30353b; stroke: #30353b; stroke-width: 0.6"/>
      </g>
     </g>
     <g id="text_9">
      <!-- 12 -->
      <g style="fill: #30353b" transform="translate(234.765443 200.332008) scale(0.08 -0.08)">
       <defs>
        <path id="MicrosoftYaHei-31" d="M 1781 0 
L 1781 4141 
Q 1638 3997 1295 3819 
Q 953 3641 663 3569 
L 663 4169 
Q 1047 4275 1484 4508 
Q 1922 4741 2156 4947 
L 2388 4947 
L 2388 0 
L 1781 0 
z
" transform="scale(0.015625)"/>
       </defs>
       <use xlink:href="#MicrosoftYaHei-31"/>
       <use xlink:href="#MicrosoftYaHei-32" transform="translate(58.642578 0)"/>
      </g>
     </g>
    </g>
    <g id="xtick_9">
     <g id="line2d_17">
      <g>
       <use xlink:href="#m32222cd6f7" x="332.822835" y="187.937008" style="fill: #30353b; stroke: #30353b; stroke-width: 0.6"/>
      </g>
     </g>
     <g id="text_10">
      <!-- 18 -->
      <g style="fill: #30353b" transform="translate(328.131585 200.332008) scale(0.08 -0.08)">
       <defs>
        <path id="MicrosoftYaHei-38" d="M 306 1350 
Q 306 1769 556 2122 
Q 806 2475 1200 2625 
Q 884 2803 700 3081 
Q 516 3359 516 3684 
Q 516 4028 692 4312 
Q 869 4597 1183 4759 
Q 1497 4922 1875 4922 
Q 2256 4922 2572 4761 
Q 2888 4600 3063 4315 
Q 3238 4031 3238 3684 
Q 3238 3366 3058 3086 
Q 2878 2806 2559 2625 
Q 2953 2472 3200 2119 
Q 3447 1766 3447 1350 
Q 3447 938 3250 611 
Q 3053 284 2690 103 
Q 2328 -78 1875 -78 
Q 1425 -78 1065 103 
Q 706 284 506 612 
Q 306 941 306 1350 
z
M 906 1378 
Q 906 947 1172 687 
Q 1438 428 1878 428 
Q 2309 428 2582 692 
Q 2856 956 2856 1378 
Q 2856 1778 2579 2051 
Q 2303 2325 1878 2325 
Q 1456 2325 1181 2058 
Q 906 1791 906 1378 
z
M 1081 3634 
Q 1081 3309 1312 3076 
Q 1544 2844 1878 2844 
Q 2206 2844 2445 3078 
Q 2684 3313 2684 3634 
Q 2684 3963 2454 4191 
Q 2225 4419 1878 4419 
Q 1534 4419 1307 4195 
Q 1081 3972 1081 3634 
z
" transform="scale(0.015625)"/>
       </defs>
       <use xlink:href="#MicrosoftYaHei-31"/>
       <use xlink:href="#MicrosoftYaHei-38" transform="translate(58.642578 0)"/>
      </g>
     </g>
    </g>
    <g id="xtick_10">
     <g id="line2d_18">
      <g>
       <use xlink:href="#m32222cd6f7" x="426.188976" y="187.937008" style="fill: #30353b; stroke: #30353b; stroke-width: 0.6"/>
      </g>
     </g>
     <g id="text_11">
      <!-- 24 -->
      <g style="fill: #30353b" transform="translate(421.497726 200.332008) scale(0.08 -0.08)">
       <use xlink:href="#MicrosoftYaHei-32"/>
       <use xlink:href="#MicrosoftYaHei-34" transform="translate(58.642578 0)"/>
      </g>
     </g>
    </g>
    <g id="text_12">
     <!-- 时刻 / h -->
     <g style="fill: #30353b" transform="translate(224.008607 213.115445) scale(0.085 -0.085)">
      <defs>
       <path id="MicrosoftYaHei-65f6" d="M 344 4728 
L 2500 4728 
L 2500 -366 
L 2006 -366 
L 2006 153 
L 838 153 
L 838 -441 
L 344 -441 
L 344 4728 
z
M 2706 3941 
L 4925 3941 
L 4925 5322 
L 5425 5322 
L 5425 3941 
L 6313 3941 
L 6313 3478 
L 5425 3478 
L 5425 116 
Q 5425 -722 4625 -722 
Q 4263 -722 3563 -703 
Q 3531 -478 3463 -178 
Q 4119 -228 4488 -228 
Q 4925 -228 4925 216 
L 4925 3478 
L 2706 3478 
L 2706 3941 
z
M 838 616 
L 2006 616 
L 2006 2234 
L 838 2234 
L 838 616 
z
M 2006 4266 
L 838 4266 
L 838 2684 
L 2006 2684 
L 2006 4266 
z
M 3406 2878 
Q 3906 1966 4163 1422 
Q 4000 1347 3663 1172 
Q 3419 1766 2963 2653 
L 3406 2878 
z
" transform="scale(0.015625)"/>
       <path id="MicrosoftYaHei-523b" d="M 3175 3478 
Q 2425 1747 413 272 
Q 256 491 75 672 
Q 1191 1394 1913 2294 
Q 1188 2256 569 2203 
L 438 2616 
Q 588 2741 694 2903 
Q 1053 3431 1350 4034 
L 275 4034 
L 275 4484 
L 2034 4484 
Q 1850 4800 1625 5134 
L 2056 5353 
Q 2325 4934 2488 4641 
L 2200 4484 
L 3900 4484 
L 3900 4034 
L 1903 4034 
Q 1422 3209 1050 2653 
Q 1303 2659 2206 2694 
Q 2516 3153 2731 3653 
L 3175 3478 
z
M 5475 5216 
L 5963 5216 
L 5963 28 
Q 5963 -722 5200 -728 
Q 4844 -734 4338 -722 
Q 4306 -478 4244 -209 
Q 4731 -266 5031 -266 
Q 5475 -266 5475 172 
L 5475 5216 
z
M 3750 2353 
Q 3359 1525 2806 850 
Q 3403 297 3994 -297 
L 3606 -666 
Q 3159 -141 2513 513 
Q 1756 -303 731 -878 
Q 581 -672 388 -478 
Q 2356 541 3306 2559 
L 3750 2353 
z
M 4269 4584 
L 4738 4584 
L 4738 634 
L 4269 634 
L 4269 4584 
z
" transform="scale(0.015625)"/>
       <path id="MicrosoftYaHei-68" d="M 3466 0 
L 2856 0 
L 2856 1988 
Q 2856 3031 2081 3031 
Q 1684 3031 1421 2726 
Q 1159 2422 1159 1959 
L 1159 0 
L 547 0 
L 547 5116 
L 1159 5116 
L 1159 2888 
L 1172 2888 
Q 1569 3538 2300 3538 
Q 3466 3538 3466 2128 
L 3466 0 
z
" transform="scale(0.015625)"/>
      </defs>
      <use xlink:href="#MicrosoftYaHei-65f6"/>
      <use xlink:href="#MicrosoftYaHei-523b" transform="translate(100 0)"/>
      <use xlink:href="#MicrosoftYaHei-20" transform="translate(200 0)"/>
      <use xlink:href="#MicrosoftYaHei-2f" transform="translate(229.589844 0)"/>
      <use xlink:href="#MicrosoftYaHei-20" transform="translate(272.314453 0)"/>
      <use xlink:href="#MicrosoftYaHei-68" transform="translate(301.904297 0)"/>
     </g>
    </g>
   </g>
   <g id="matplotlib.axis_4">
    <g id="ytick_5">
     <g id="line2d_19">
      <path d="M 52.724409 181.507822 
L 426.188976 181.507822 
" clip-path="url(#p111beb7707)" style="fill: none; stroke: #e4e6e8; stroke-width: 0.55; stroke-linecap: square"/>
     </g>
     <g id="line2d_20">
      <g>
       <use xlink:href="#meb17bb7f0b" x="52.724409" y="181.507822" style="fill: #30353b; stroke: #30353b; stroke-width: 0.6"/>
      </g>
     </g>
     <g id="text_13">
      <!-- 0.5 -->
      <g style="fill: #30353b" transform="translate(35.415659 184.705322) scale(0.08 -0.08)">
       <defs>
        <path id="MicrosoftYaHei-2e" d="M 372 322 
Q 372 491 487 606 
Q 603 722 775 722 
Q 950 722 1065 605 
Q 1181 488 1181 322 
Q 1181 159 1065 42 
Q 950 -75 772 -75 
Q 600 -75 486 42 
Q 372 159 372 322 
z
" transform="scale(0.015625)"/>
        <path id="MicrosoftYaHei-35" d="M 3294 1494 
Q 3294 784 2823 350 
Q 2353 -84 1559 -84 
Q 878 -84 544 119 
L 544 744 
Q 1034 425 1544 425 
Q 2050 425 2361 704 
Q 2672 984 2672 1447 
Q 2672 1909 2348 2167 
Q 2025 2425 1434 2425 
Q 978 2425 613 2384 
L 791 4841 
L 3053 4841 
L 3053 4303 
L 1306 4303 
L 1206 2931 
L 1647 2950 
Q 2416 2950 2855 2567 
Q 3294 2184 3294 1494 
z
" transform="scale(0.015625)"/>
       </defs>
       <use xlink:href="#MicrosoftYaHei-30"/>
       <use xlink:href="#MicrosoftYaHei-2e" transform="translate(58.642578 0)"/>
       <use xlink:href="#MicrosoftYaHei-35" transform="translate(82.714844 0)"/>
      </g>
     </g>
    </g>
    <g id="ytick_6">
     <g id="line2d_21">
      <path d="M 52.724409 163.638548 
L 426.188976 163.638548 
" clip-path="url(#p111beb7707)" style="fill: none; stroke: #e4e6e8; stroke-width: 0.55; stroke-linecap: square"/>
     </g>
     <g id="line2d_22">
      <g>
       <use xlink:href="#meb17bb7f0b" x="52.724409" y="163.638548" style="fill: #30353b; stroke: #30353b; stroke-width: 0.6"/>
      </g>
     </g>
     <g id="text_14">
      <!-- 1.0 -->
      <g style="fill: #30353b" transform="translate(35.415659 166.836048) scale(0.08 -0.08)">
       <use xlink:href="#MicrosoftYaHei-31"/>
       <use xlink:href="#MicrosoftYaHei-2e" transform="translate(58.642578 0)"/>
       <use xlink:href="#MicrosoftYaHei-30" transform="translate(82.714844 0)"/>
      </g>
     </g>
    </g>
    <g id="text_15">
     <!-- 电价 / 元/kWh -->
     <g style="fill: #30353b" transform="translate(29.302613 195.963289) rotate(-90) scale(0.085 -0.085)">
      <defs>
       <path id="MicrosoftYaHei-7535" d="M 406 4497 
L 2713 4497 
L 2713 5297 
L 3231 5297 
L 3231 4497 
L 5544 4497 
L 5544 984 
L 3231 984 
L 3231 253 
Q 3231 -128 3631 -128 
L 5094 -128 
Q 5519 -128 5613 153 
Q 5713 459 5756 1034 
Q 5938 953 6275 841 
Q 6200 341 6106 -16 
Q 5950 -603 5256 -603 
L 3594 -603 
Q 2713 -603 2713 259 
L 2713 984 
L 925 984 
L 925 553 
L 406 553 
L 406 4497 
z
M 5025 1453 
L 5025 2522 
L 3231 2522 
L 3231 1453 
L 5025 1453 
z
M 925 1453 
L 2713 1453 
L 2713 2522 
L 925 2522 
L 925 1453 
z
M 5025 4028 
L 3231 4028 
L 3231 2966 
L 5025 2966 
L 5025 4028 
z
M 925 2966 
L 2713 2966 
L 2713 4028 
L 925 4028 
L 925 2966 
z
" transform="scale(0.015625)"/>
       <path id="MicrosoftYaHei-4ef7" d="M 69 2166 
Q 913 3484 1388 5259 
L 1875 5109 
Q 1650 4391 1400 3766 
L 1400 -853 
L 931 -853 
L 931 2722 
Q 619 2109 281 1622 
Q 163 1959 69 2166 
z
M 4319 5272 
L 4231 5116 
Q 5006 3747 6319 3141 
Q 6156 2953 5975 2703 
Q 4706 3434 3975 4703 
Q 3275 3497 2000 2603 
Q 1850 2822 1675 2997 
Q 3088 3884 3756 5272 
L 4319 5272 
z
M 3313 2828 
L 3313 1941 
Q 3313 134 2275 -891 
Q 2094 -709 1856 -541 
Q 2825 347 2825 1897 
L 2825 2828 
L 3313 2828 
z
M 4631 2828 
L 5119 2828 
L 5119 -828 
L 4631 -828 
L 4631 2828 
z
" transform="scale(0.015625)"/>
       <path id="MicrosoftYaHei-5143" d="M 188 3084 
L 6225 3084 
L 6225 2609 
L 4250 2609 
L 4250 172 
Q 4250 -197 4625 -197 
L 5163 -197 
Q 5613 -197 5675 216 
Q 5731 566 5769 1103 
Q 6019 1016 6313 947 
Q 6250 409 6181 47 
Q 6056 -641 5275 -641 
L 4513 -641 
Q 3725 -641 3725 128 
L 3725 2609 
L 2450 2609 
L 2450 2409 
Q 2450 1084 2050 447 
Q 1650 -247 469 -847 
Q 244 -572 100 -428 
Q 1181 103 1556 691 
Q 1925 1253 1925 2384 
L 1925 2609 
L 188 2609 
L 188 3084 
z
M 788 4903 
L 5638 4903 
L 5638 4428 
L 788 4428 
L 788 4903 
z
" transform="scale(0.015625)"/>
      </defs>
      <use xlink:href="#MicrosoftYaHei-7535"/>
      <use xlink:href="#MicrosoftYaHei-4ef7" transform="translate(100 0)"/>
      <use xlink:href="#MicrosoftYaHei-20" transform="translate(200 0)"/>
      <use xlink:href="#MicrosoftYaHei-2f" transform="translate(229.589844 0)"/>
      <use xlink:href="#MicrosoftYaHei-20" transform="translate(272.314453 0)"/>
      <use xlink:href="#MicrosoftYaHei-5143" transform="translate(301.904297 0)"/>
      <use xlink:href="#MicrosoftYaHei-2f" transform="translate(401.904297 0)"/>
      <use xlink:href="#MicrosoftYaHei-6b" transform="translate(444.628906 0)"/>
      <use xlink:href="#MicrosoftYaHei-57" transform="translate(499.072266 0)"/>
      <use xlink:href="#MicrosoftYaHei-68" transform="translate(600.830078 0)"/>
     </g>
    </g>
   </g>
   <g id="patch_8">
    <path d="M 52.724409 184.195361 
L 65.691929 184.113162 
L 65.691929 184.063128 
L 78.659449 183.966634 
L 78.659449 183.891583 
L 83.846457 183.970208 
L 83.846457 184.034537 
L 89.033465 183.923748 
L 89.033465 183.770072 
L 94.220472 183.837975 
L 94.220472 183.884435 
L 99.40748 183.80581 
L 99.40748 183.745055 
L 125.34252 183.677152 
L 125.34252 183.57351 
L 130.529528 183.670004 
L 130.529528 183.891583 
L 133.123031 183.891583 
L 133.123031 183.512754 
L 135.716535 183.512754 
L 135.716535 184.005946 
L 138.310039 184.005946 
L 138.310039 186.107373 
L 140.903543 186.107373 
L 140.903543 178.977533 
L 143.497047 178.977533 
L 143.497047 166.858591 
L 146.090551 166.858591 
L 146.090551 165.897224 
L 148.684055 165.897224 
L 148.684055 168.077276 
L 153.871063 168.073702 
L 153.871063 168.638371 
L 156.464567 168.638371 
L 156.464567 169.206614 
L 159.058071 169.206614 
L 159.058071 169.59259 
L 161.651575 169.59259 
L 161.651575 170.457463 
L 164.245079 170.457463 
L 164.245079 170.886326 
L 166.838583 170.886326 
L 166.838583 172.05855 
L 169.432087 172.05855 
L 169.432087 174.721072 
L 172.025591 174.721072 
L 172.025591 168.641945 
L 174.619094 168.641945 
L 174.619094 157.859625 
L 177.212598 157.859625 
L 177.212598 157.623751 
L 179.806102 157.623751 
L 179.806102 160.221943 
L 182.399606 160.221943 
L 182.399606 160.604346 
L 184.99311 160.604346 
L 184.99311 161.458497 
L 187.586614 161.458497 
L 187.586614 162.101791 
L 190.180118 162.101791 
L 190.180118 162.351961 
L 192.773622 162.351961 
L 192.773622 163.113192 
L 195.367126 163.113192 
L 195.367126 163.917309 
L 197.96063 163.917309 
L 197.96063 164.710705 
L 200.554134 164.710705 
L 200.554134 165.704236 
L 203.147638 165.704236 
L 203.147638 165.17888 
L 205.741142 165.17888 
L 205.741142 163.720747 
L 208.334646 163.720747 
L 208.334646 163.92803 
L 210.92815 163.92803 
L 210.92815 165.110976 
L 213.521654 165.110976 
L 213.521654 165.250357 
L 216.115157 165.250357 
L 216.115157 164.213939 
L 218.708661 164.213939 
L 218.708661 170.821996 
L 221.302165 170.821996 
L 221.302165 181.418476 
L 223.895669 181.418476 
L 223.895669 182.715785 
L 226.489173 182.715785 
L 226.489173 181.482805 
L 229.082677 181.482805 
L 229.082677 182.126099 
L 231.676181 182.126099 
L 231.676181 182.276201 
L 234.269685 182.276201 
L 234.269685 182.715785 
L 236.863189 182.715785 
L 236.863189 183.537771 
L 242.050197 183.612822 
L 242.050197 183.112483 
L 244.643701 183.112483 
L 244.643701 183.426982 
L 247.237205 183.426982 
L 247.237205 184.677831 
L 249.830709 184.677831 
L 249.830709 179.070453 
L 252.424213 179.070453 
L 252.424213 169.789152 
L 255.017717 169.789152 
L 255.017717 168.513286 
L 257.61122 168.513286 
L 257.61122 169.299534 
L 260.204724 169.299534 
L 260.204724 168.577615 
L 265.391732 168.559746 
L 265.391732 167.119483 
L 267.985236 167.119483 
L 267.985236 164.517716 
L 270.57874 164.517716 
L 270.57874 163.631401 
L 275.765748 163.717173 
L 275.765748 162.670034 
L 278.359252 162.670034 
L 278.359252 160.400636 
L 280.952756 160.400636 
L 280.952756 165.868634 
L 283.54626 165.868634 
L 283.54626 175.453712 
L 286.139764 175.453712 
L 286.139764 175.789654 
L 288.733268 175.789654 
L 288.733268 173.584586 
L 291.326772 173.584586 
L 291.326772 173.259365 
L 293.920276 173.259365 
L 293.920276 172.451674 
L 296.51378 172.451674 
L 296.51378 171.41883 
L 299.107283 171.41883 
L 299.107283 170.589696 
L 301.700787 170.589696 
L 301.700787 169.817743 
L 304.294291 169.817743 
L 304.294291 168.931427 
L 306.887795 168.931427 
L 306.887795 167.959339 
L 309.481299 167.959339 
L 309.481299 167.12663 
L 312.074803 167.12663 
L 312.074803 166.629865 
L 314.668307 166.629865 
L 314.668307 166.268905 
L 317.261811 166.268905 
L 317.261811 165.561282 
L 319.855315 165.561282 
L 319.855315 164.560603 
L 322.448819 164.560603 
L 322.448819 164.13174 
L 325.042323 164.13174 
L 325.042323 164.496273 
L 327.635827 164.496273 
L 327.635827 160.986748 
L 330.229331 160.986748 
L 330.229331 155.372222 
L 332.822835 155.372222 
L 332.822835 154.485906 
L 335.416339 154.485906 
L 335.416339 154.893326 
L 338.009843 154.893326 
L 338.009843 154.543088 
L 343.19685 154.625287 
L 343.19685 153.342273 
L 345.790354 153.342273 
L 345.790354 151.251568 
L 348.383858 151.251568 
L 348.383858 151.047858 
L 350.977362 151.047858 
L 350.977362 151.326619 
L 353.570866 151.326619 
L 353.570866 151.190812 
L 366.538386 151.083597 
L 366.538386 151.487442 
L 369.13189 151.487442 
L 369.13189 151.169369 
L 371.725394 151.169369 
L 371.725394 149.514674 
L 374.318898 149.514674 
L 374.318898 155.683148 
L 376.912402 155.683148 
L 376.912402 166.025883 
L 379.505906 166.025883 
L 379.505906 166.969381 
L 382.099409 166.969381 
L 382.099409 165.886503 
L 387.286417 165.886503 
L 387.286417 164.099575 
L 389.879921 164.099575 
L 389.879921 171.629687 
L 392.473425 171.629687 
L 392.473425 184.334741 
L 395.066929 184.334741 
L 395.066929 185.58559 
L 397.660433 185.58559 
L 397.660433 183.766498 
L 400.253937 183.766498 
L 400.253937 184.374053 
L 405.440945 184.41694 
L 405.440945 184.220378 
L 423.595472 184.113162 
L 423.595472 184.095293 
L 426.188976 184.095293 
L 426.188976 184.095293 
" clip-path="url(#p111beb7707)" style="fill: none; stroke: #30353b; stroke-linejoin: miter"/>
   </g>
   <g id="patch_9">
    <path d="M 52.724409 187.937008 
L 52.724409 147.685039 
" style="fill: none; stroke: #30353b; stroke-width: 0.6; stroke-linejoin: miter; stroke-linecap: square"/>
   </g>
   <g id="patch_10">
    <path d="M 52.724409 187.937008 
L 426.188976 187.937008 
" style="fill: none; stroke: #30353b; stroke-width: 0.6; stroke-linejoin: miter; stroke-linecap: square"/>
   </g>
   <g id="text_16">
    <!-- (b)  分时电价 -->
    <g style="fill: #30353b" transform="translate(52.724409 139.685039) scale(0.09 -0.09)">
     <defs>
      <path id="MicrosoftYaHei-Bold-62" d="M 1469 416 
L 1469 0 
L 459 0 
L 459 5116 
L 1469 5116 
L 1469 2928 
L 1481 2928 
Q 1878 3541 2613 3541 
Q 3266 3541 3636 3084 
Q 4006 2628 4006 1825 
Q 4006 966 3581 441 
Q 3156 -84 2453 -84 
Q 1809 -84 1481 416 
L 1469 416 
z
M 1453 1494 
Q 1453 1153 1656 922 
Q 1859 691 2172 691 
Q 2550 691 2761 984 
Q 2972 1278 2972 1816 
Q 2972 2263 2780 2514 
Q 2588 2766 2231 2766 
Q 1894 2766 1673 2512 
Q 1453 2259 1453 1863 
L 1453 1494 
z
" transform="scale(0.015625)"/>
      <path id="MicrosoftYaHei-Bold-5206" d="M 6350 3028 
Q 6088 2703 5750 2228 
Q 5519 2409 5303 2603 
Q 5219 606 5172 190 
Q 5125 -225 4862 -451 
Q 4600 -678 4128 -678 
Q 3484 -678 2913 -659 
Q 2856 -141 2781 284 
Q 3594 216 3956 216 
Q 4172 216 4230 408 
Q 4288 600 4325 1978 
L 2781 1978 
Q 2728 1100 2529 631 
Q 2331 163 1907 -215 
Q 1484 -594 844 -872 
Q 456 -353 194 -78 
Q 750 144 1111 414 
Q 1472 684 1630 989 
Q 1788 1294 1841 1978 
L 950 1978 
L 950 2475 
Q 794 2356 631 2247 
Q 344 2653 63 2953 
Q 1475 3947 2194 5316 
L 3031 4953 
Q 2378 3722 1391 2841 
L 5047 2841 
Q 4088 3766 3463 4903 
L 4238 5303 
Q 5038 3922 6350 3028 
z
" transform="scale(0.015625)"/>
      <path id="MicrosoftYaHei-Bold-65f6" d="M 3038 4241 
L 4888 4241 
L 4888 5291 
L 5781 5291 
L 5781 4241 
L 6306 4241 
L 6306 3409 
L 5781 3409 
L 5781 316 
Q 5781 -209 5547 -478 
Q 5313 -747 4898 -762 
Q 4484 -778 3669 -778 
Q 3569 -209 3456 134 
Q 4344 109 4431 109 
Q 4888 109 4888 584 
L 4888 3409 
L 3038 3409 
L 3038 4241 
z
M 394 -497 
L 394 4897 
L 2856 4897 
L 2856 -459 
L 2031 -459 
L 2031 -28 
L 1219 -28 
L 1219 -497 
L 394 -497 
z
M 2031 4072 
L 1219 4072 
L 1219 2834 
L 2031 2834 
L 2031 4072 
z
M 1219 797 
L 2031 797 
L 2031 2034 
L 1219 2034 
L 1219 797 
z
M 3588 3072 
Q 4013 2541 4713 1559 
L 3956 1066 
Q 3388 2009 2938 2641 
L 3588 3072 
z
" transform="scale(0.015625)"/>
      <path id="MicrosoftYaHei-Bold-7535" d="M 5563 4522 
L 5563 1125 
Q 5866 997 6300 878 
Q 6131 -222 5828 -447 
Q 5525 -672 5025 -672 
L 3525 -672 
Q 2506 -672 2506 253 
L 2506 878 
L 1281 878 
L 1281 391 
L 381 391 
L 381 4522 
L 2506 4522 
L 2506 5291 
L 3413 5291 
L 3413 4522 
L 5563 4522 
z
M 4663 3734 
L 3413 3734 
L 3413 3097 
L 4663 3097 
L 4663 3734 
z
M 1281 3734 
L 1281 3097 
L 2506 3097 
L 2506 3734 
L 1281 3734 
z
M 4663 1666 
L 4663 2309 
L 3413 2309 
L 3413 1666 
L 4663 1666 
z
M 1281 1666 
L 2506 1666 
L 2506 2309 
L 1281 2309 
L 1281 1666 
z
M 3794 103 
L 4731 103 
Q 4963 103 5097 183 
Q 5231 263 5270 402 
Q 5309 541 5366 878 
L 3413 878 
L 3413 434 
Q 3413 103 3794 103 
z
" transform="scale(0.015625)"/>
      <path id="MicrosoftYaHei-Bold-4ef7" d="M 4525 2684 
L 5381 2684 
Q 4613 3391 4131 4291 
Q 3613 3428 2813 2678 
L 3625 2678 
Q 3625 2041 3613 1703 
Q 3613 -41 2606 -853 
Q 2375 -578 1938 -222 
Q 2688 484 2713 1591 
Q 2725 1903 2725 2591 
Q 2500 2384 2256 2191 
Q 2081 2553 1825 3028 
Q 2938 3884 3719 5184 
L 4744 5184 
L 4606 4984 
Q 5250 3859 6319 3147 
L 5900 2253 
Q 5650 2434 5431 2634 
L 5431 -766 
L 4525 -766 
L 4525 2684 
z
M 1394 5278 
L 2250 5022 
Q 2025 4322 1731 3666 
L 1731 -797 
L 875 -797 
L 875 2103 
Q 650 1753 400 1422 
Q 313 1809 88 2516 
Q 831 3547 1394 5278 
z
" transform="scale(0.015625)"/>
     </defs>
     <use xlink:href="#MicrosoftYaHei-Bold-28"/>
     <use xlink:href="#MicrosoftYaHei-Bold-62" transform="translate(38.964844 0)"/>
     <use xlink:href="#MicrosoftYaHei-Bold-29" transform="translate(105.566406 0)"/>
     <use xlink:href="#MicrosoftYaHei-Bold-20" transform="translate(144.53125 0)"/>
     <use xlink:href="#MicrosoftYaHei-Bold-20" transform="translate(174.316406 0)"/>
     <use xlink:href="#MicrosoftYaHei-Bold-5206" transform="translate(204.101562 0)"/>
     <use xlink:href="#MicrosoftYaHei-Bold-65f6" transform="translate(304.101562 0)"/>
     <use xlink:href="#MicrosoftYaHei-Bold-7535" transform="translate(404.101562 0)"/>
     <use xlink:href="#MicrosoftYaHei-Bold-4ef7" transform="translate(504.101562 0)"/>
    </g>
   </g>
  </g>
  <g id="legend_1">
   <g id="patch_11">
    <path d="M 187.666142 15.806024 
L 205.266142 15.806024 
L 205.266142 10.206024 
L 187.666142 10.206024 
z
" style="fill: #d9a441; opacity: 0.25"/>
   </g>
   <g id="text_17">
    <!-- 光伏 -->
    <g style="fill: #30353b" transform="translate(211.666142 15.806024) scale(0.08 -0.08)">
     <defs>
      <path id="MicrosoftYaHei-5149" d="M 169 2691 
L 2931 2691 
L 2931 5309 
L 3444 5309 
L 3444 2691 
L 6256 2691 
L 6256 2228 
L 4206 2228 
L 4206 216 
Q 4206 -22 4269 -116 
Q 4356 -241 4638 -241 
L 5256 -241 
Q 5706 -241 5750 91 
Q 5794 428 5819 984 
Q 6056 884 6344 797 
Q 6288 153 6231 -122 
Q 6175 -441 5963 -559 
Q 5763 -678 5281 -678 
L 4538 -678 
Q 4056 -678 3863 -466 
Q 3700 -284 3700 141 
L 3700 2228 
L 2491 2228 
Q 2466 931 1988 266 
Q 1469 -459 369 -841 
Q 244 -647 50 -397 
Q 1150 -16 1569 603 
Q 1966 1134 1991 2228 
L 169 2228 
L 169 2691 
z
M 4094 3397 
Q 4813 4084 5369 4828 
L 5825 4503 
Q 5200 3766 4481 3059 
L 4094 3397 
z
M 619 4528 
L 1000 4828 
Q 1631 4134 2213 3434 
L 1756 3084 
Q 1188 3866 619 4528 
z
" transform="scale(0.015625)"/>
      <path id="MicrosoftYaHei-4f0f" d="M 1844 3416 
L 3691 3416 
Q 3719 4347 3719 5316 
L 4225 5316 
Q 4219 4578 4197 3416 
L 6269 3416 
L 6269 2959 
L 4209 2959 
Q 4597 781 6313 -316 
Q 6063 -584 5888 -791 
Q 4441 331 4000 2022 
Q 3625 378 1956 -847 
Q 1806 -641 1613 -403 
Q 3503 894 3669 2959 
L 1844 2959 
L 1844 3416 
z
M 88 2328 
Q 1056 3634 1556 5284 
L 2063 5116 
Q 1753 4247 1388 3516 
L 1388 -809 
L 913 -809 
L 913 2659 
Q 616 2178 288 1772 
Q 194 2041 88 2328 
z
M 5006 5028 
Q 5519 4522 5913 4116 
Q 5719 3947 5531 3766 
Q 5106 4272 4675 4728 
L 5006 5028 
z
" transform="scale(0.015625)"/>
     </defs>
     <use xlink:href="#MicrosoftYaHei-5149"/>
     <use xlink:href="#MicrosoftYaHei-4f0f" transform="translate(100 0)"/>
    </g>
   </g>
   <g id="line2d_23">
    <path d="M 238.066142 13.006024 
L 255.666142 13.006024 
" style="fill: none; stroke: #30353b; stroke-linecap: square"/>
   </g>
   <g id="text_18">
    <!-- 负载 -->
    <g style="fill: #30353b" transform="translate(262.066142 15.806024) scale(0.08 -0.08)">
     <defs>
      <path id="MicrosoftYaHei-8d1f" d="M 963 3353 
L 3250 3353 
Q 3556 3659 4031 4216 
L 1819 4216 
Q 1163 3503 463 3009 
Q 325 3172 94 3384 
Q 1356 4303 2094 5334 
L 2600 5147 
Q 2406 4891 2213 4659 
L 4700 4659 
L 4700 4241 
Q 4294 3778 3881 3353 
L 5600 3353 
L 5600 641 
L 5100 641 
L 5100 2909 
L 1463 2909 
L 1463 603 
L 963 603 
L 963 3353 
z
M 188 -403 
Q 1806 -97 2550 422 
Q 3019 728 3019 1603 
L 3019 2609 
L 3525 2609 
L 3525 1716 
Q 3525 1297 3469 997 
Q 4906 334 6163 -416 
L 5831 -878 
Q 4513 -53 3325 534 
Q 2863 -391 475 -891 
Q 344 -653 188 -403 
z
" transform="scale(0.015625)"/>
      <path id="MicrosoftYaHei-8f7d" d="M 2881 -416 
Q 3622 91 4213 806 
Q 3894 1769 3806 3234 
L 125 3234 
L 125 3653 
L 1681 3653 
L 1681 4234 
L 381 4234 
L 381 4628 
L 1681 4628 
L 1681 5266 
L 2144 5266 
L 2144 4628 
L 3375 4628 
L 3375 4234 
L 2144 4234 
L 2144 3653 
L 3781 3653 
Q 3744 4397 3713 5297 
L 4194 5297 
Q 4197 4419 4241 3653 
L 6319 3653 
L 6319 3234 
L 4266 3234 
Q 4331 2081 4563 1269 
Q 5034 1941 5394 2766 
L 5825 2566 
Q 5344 1531 4744 738 
Q 4938 278 5200 -34 
Q 5363 -222 5500 -222 
Q 5669 -222 5725 28 
Q 5800 366 5869 878 
Q 6119 766 6319 709 
Q 6238 178 6138 -234 
Q 5981 -791 5581 -791 
Q 5125 -791 4713 -209 
Q 4544 22 4406 319 
Q 3869 -297 3250 -741 
Q 3063 -528 2881 -416 
z
M 1006 1472 
L 1863 1472 
L 1863 2047 
L 2306 2047 
L 2306 1472 
L 3488 1472 
L 3488 1078 
L 2306 1078 
L 2306 497 
Q 2878 544 3513 597 
Q 3494 397 3494 191 
Q 2931 153 2306 100 
L 2306 -816 
L 1863 -816 
L 1863 59 
Q 1128 -3 313 -91 
L 213 359 
Q 956 400 1863 466 
L 1863 1078 
L 488 1078 
L 488 1484 
Q 741 1813 984 2216 
L 275 2216 
L 275 2609 
L 1213 2609 
Q 1366 2888 1513 3197 
L 1975 3053 
Q 1847 2819 1725 2609 
L 3538 2609 
L 3538 2216 
L 1491 2216 
Q 1231 1791 1006 1472 
z
M 4613 4841 
L 4919 5147 
Q 5550 4672 5944 4303 
L 5588 3941 
Q 5163 4397 4613 4841 
z
" transform="scale(0.015625)"/>
     </defs>
     <use xlink:href="#MicrosoftYaHei-8d1f"/>
     <use xlink:href="#MicrosoftYaHei-8f7d" transform="translate(100 0)"/>
    </g>
   </g>
  </g>
 </g>
 <defs>
  <clipPath id="p2096a00d5f">
   <rect x="52.724409" y="30.954331" width="373.464567" height="80.503937"/>
  </clipPath>
  <clipPath id="p111beb7707">
   <rect x="52.724409" y="147.685039" width="373.464567" height="40.251969"/>
  </clipPath>
 </defs>
</svg>
