<?xml version="1.0" encoding="utf-8" standalone="no"?>
<!DOCTYPE svg PUBLIC "-//W3C//DTD SVG 1.1//EN"
  "http://www.w3.org/Graphics/SVG/1.1/DTD/svg11.dtd">
<svg xmlns:xlink="http://www.w3.org/1999/xlink" width="439.370079pt" height="223.937008pt" viewBox="0 0 439.370079 223.937008" xmlns="http://www.w3.org/2000/svg" version="1.1">
 <metadata>
  <rdf:RDF xmlns:dc="http://purl.org/dc/elements/1.1/" xmlns:cc="http://creativecommons.org/ns#" xmlns:rdf="http://www.w3.org/1999/02/22-rdf-syntax-ns#">
   <cc:Work>
    <dc:type rdf:resource="http://purl.org/dc/dcmitype/StillImage"/>
    <dc:date>2026-09-13T03:10:39.389596</dc:date>
    <dc:format>image/svg+xml</dc:format>
    <dc:creator>
     <cc:Agent>
      <dc:title>Matplotlib v3.10.9, https://matplotlib.org/</dc:title>
     </cc:Agent>
    </dc:creator>
   </cc:Work>
  </rdf:RDF>
 </metadata>
 <defs>
  <style type="text/css">*{stroke-linejoin: round; stroke-linecap: butt}</style>
 </defs>
 <g id="figure_1">
  <g id="patch_1">
   <path d="M 0 223.937008 
L 439.370079 223.937008 
L 439.370079 0 
L 0 0 
z
" style="fill: #ffffff"/>
  </g>
  <g id="axes_1">
   <g id="patch_2">
    <path d="M 50.527559 127.644094 
L 428.385827 127.644094 
L 428.385827 22.393701 
L 50.527559 22.393701 
z
" style="fill: #ffffff"/>
   </g>
   <g id="matplotlib.axis_1">
    <g id="xtick_1">
     <g id="line2d_1">
      <defs>
       <path id="m93ae4f0a39" d="M 0 0 
L 0 3 
" style="stroke: #262626; stroke-width: 0.8"/>
      </defs>
      <g>
       <use xlink:href="#m93ae4f0a39" x="50.527559" y="127.644094" style="fill: #262626; stroke: #262626; stroke-width: 0.8"/>
      </g>
     </g>
    </g>
    <g id="xtick_2">
     <g id="line2d_2">
      <g>
       <use xlink:href="#m93ae4f0a39" x="144.992126" y="127.644094" style="fill: #262626; stroke: #262626; stroke-width: 0.8"/>
      </g>
     </g>
    </g>
    <g id="xtick_3">
     <g id="line2d_3">
      <g>
       <use xlink:href="#m93ae4f0a39" x="239.456693" y="127.644094" style="fill: #262626; stroke: #262626; stroke-width: 0.8"/>
      </g>
     </g>
    </g>
    <g id="xtick_4">
     <g id="line2d_4">
      <g>
       <use xlink:href="#m93ae4f0a39" x="333.92126" y="127.644094" style="fill: #262626; stroke: #262626; stroke-width: 0.8"/>
      </g>
     </g>
    </g>
    <g id="xtick_5">
     <g id="line2d_5">
      <g>
       <use xlink:href="#m93ae4f0a39" x="428.385827" y="127.644094" style="fill: #262626; stroke: #262626; stroke-width: 0.8"/>
      </g>
     </g>
    </g>
   </g>
   <g id="matplotlib.axis_2">
    <g id="ytick_1">
     <g id="line2d_6">
      <path d="M 50.527559 127.644094 
L 428.385827 127.644094 
" clip-path="url(#peec3df3e84)" style="fill: none; stroke: #e4e8eb; stroke-width: 0.5; stroke-linecap: square"/>
     </g>
     <g id="line2d_7">
      <defs>
       <path id="me51ed0e71e" d="M 0 0 
L -3 0 
" style="stroke: #262626; stroke-width: 0.8"/>
      </defs>
      <g>
       <use xlink:href="#me51ed0e71e" x="50.527559" y="127.644094" style="fill: #262626; stroke: #262626; stroke-width: 0.8"/>
      </g>
     </g>
     <g id="text_1">
      <!-- 0 -->
      <g style="fill: #262626" transform="translate(39.022715 130.86511) scale(0.09 -0.09)">
       <defs>
        <path id="ArialMT-30" d="M 266 2259 
Q 266 3072 433 3567 
Q 600 4063 929 4331 
Q 1259 4600 1759 4600 
Q 2128 4600 2406 4451 
Q 2684 4303 2865 4023 
Q 3047 3744 3150 3342 
Q 3253 2941 3253 2259 
Q 3253 1453 3087 958 
Q 2922 463 2592 192 
Q 2263 -78 1759 -78 
Q 1097 -78 719 397 
Q 266 969 266 2259 
z
M 844 2259 
Q 844 1131 1108 757 
Q 1372 384 1759 384 
Q 2147 384 2411 759 
Q 2675 1134 2675 2259 
Q 2675 3391 2411 3762 
Q 2147 4134 1753 4134 
Q 1366 4134 1134 3806 
Q 844 3388 844 2259 
z
" transform="scale(0.015625)"/>
       </defs>
       <use xlink:href="#ArialMT-30"/>
      </g>
     </g>
    </g>
    <g id="ytick_2">
     <g id="line2d_8">
      <path d="M 50.527559 101.308228 
L 428.385827 101.308228 
" clip-path="url(#peec3df3e84)" style="fill: none; stroke: #e4e8eb; stroke-width: 0.5; stroke-linecap: square"/>
     </g>
     <g id="line2d_9">
      <g>
       <use xlink:href="#me51ed0e71e" x="50.527559" y="101.308228" style="fill: #262626; stroke: #262626; stroke-width: 0.8"/>
      </g>
     </g>
     <g id="text_2">
      <!-- 2000 -->
      <g style="fill: #262626" transform="translate(24.008184 104.529243) scale(0.09 -0.09)">
       <defs>
        <path id="ArialMT-32" d="M 3222 541 
L 3222 0 
L 194 0 
Q 188 203 259 391 
Q 375 700 629 1000 
Q 884 1300 1366 1694 
Q 2113 2306 2375 2664 
Q 2638 3022 2638 3341 
Q 2638 3675 2398 3904 
Q 2159 4134 1775 4134 
Q 1369 4134 1125 3890 
Q 881 3647 878 3216 
L 300 3275 
Q 359 3922 746 4261 
Q 1134 4600 1788 4600 
Q 2447 4600 2831 4234 
Q 3216 3869 3216 3328 
Q 3216 3053 3103 2787 
Q 2991 2522 2730 2228 
Q 2469 1934 1863 1422 
Q 1356 997 1212 845 
Q 1069 694 975 541 
L 3222 541 
z
" transform="scale(0.015625)"/>
       </defs>
       <use xlink:href="#ArialMT-32"/>
       <use xlink:href="#ArialMT-30" transform="translate(55.615234 0)"/>
       <use xlink:href="#ArialMT-30" transform="translate(111.230469 0)"/>
       <use xlink:href="#ArialMT-30" transform="translate(166.845703 0)"/>
      </g>
     </g>
    </g>
    <g id="ytick_3">
     <g id="line2d_10">
      <path d="M 50.527559 74.972361 
L 428.385827 74.972361 
" clip-path="url(#peec3df3e84)" style="fill: none; stroke: #e4e8eb; stroke-width: 0.5; stroke-linecap: square"/>
     </g>
     <g id="line2d_11">
      <g>
       <use xlink:href="#me51ed0e71e" x="50.527559" y="74.972361" style="fill: #262626; stroke: #262626; stroke-width: 0.8"/>
      </g>
     </g>
     <g id="text_3">
      <!-- 4000 -->
      <g style="fill: #262626" transform="translate(24.008184 78.193376) scale(0.09 -0.09)">
       <defs>
        <path id="ArialMT-34" d="M 2069 0 
L 2069 1097 
L 81 1097 
L 81 1613 
L 2172 4581 
L 2631 4581 
L 2631 1613 
L 3250 1613 
L 3250 1097 
L 2631 1097 
L 2631 0 
L 2069 0 
z
M 2069 1613 
L 2069 3678 
L 634 1613 
L 2069 1613 
z
" transform="scale(0.015625)"/>
       </defs>
       <use xlink:href="#ArialMT-34"/>
       <use xlink:href="#ArialMT-30" transform="translate(55.615234 0)"/>
       <use xlink:href="#ArialMT-30" transform="translate(111.230469 0)"/>
       <use xlink:href="#ArialMT-30" transform="translate(166.845703 0)"/>
      </g>
     </g>
    </g>
    <g id="ytick_4">
     <g id="line2d_12">
      <path d="M 50.527559 48.636494 
L 428.385827 48.636494 
" clip-path="url(#peec3df3e84)" style="fill: none; stroke: #e4e8eb; stroke-width: 0.5; stroke-linecap: square"/>
     </g>
     <g id="line2d_13">
      <g>
       <use xlink:href="#me51ed0e71e" x="50.527559" y="48.636494" style="fill: #262626; stroke: #262626; stroke-width: 0.8"/>
      </g>
     </g>
     <g id="text_4">
      <!-- 6000 -->
      <g style="fill: #262626" transform="translate(24.008184 51.85751) scale(0.09 -0.09)">
       <defs>
        <path id="ArialMT-36" d="M 3184 3459 
L 2625 3416 
Q 2550 3747 2413 3897 
Q 2184 4138 1850 4138 
Q 1581 4138 1378 3988 
Q 1113 3794 959 3422 
Q 806 3050 800 2363 
Q 1003 2672 1297 2822 
Q 1591 2972 1913 2972 
Q 2475 2972 2870 2558 
Q 3266 2144 3266 1488 
Q 3266 1056 3080 686 
Q 2894 316 2569 119 
Q 2244 -78 1831 -78 
Q 1128 -78 684 439 
Q 241 956 241 2144 
Q 241 3472 731 4075 
Q 1159 4600 1884 4600 
Q 2425 4600 2770 4297 
Q 3116 3994 3184 3459 
z
M 888 1484 
Q 888 1194 1011 928 
Q 1134 663 1356 523 
Q 1578 384 1822 384 
Q 2178 384 2434 671 
Q 2691 959 2691 1453 
Q 2691 1928 2437 2201 
Q 2184 2475 1800 2475 
Q 1419 2475 1153 2201 
Q 888 1928 888 1484 
z
" transform="scale(0.015625)"/>
       </defs>
       <use xlink:href="#ArialMT-36"/>
       <use xlink:href="#ArialMT-30" transform="translate(55.615234 0)"/>
       <use xlink:href="#ArialMT-30" transform="translate(111.230469 0)"/>
       <use xlink:href="#ArialMT-30" transform="translate(166.845703 0)"/>
      </g>
     </g>
    </g>
    <g id="text_5">
     <!-- 功率 / kW -->
     <g style="fill: #262626" transform="translate(18.020684 96.405616) rotate(-90) scale(0.1 -0.1)">
      <defs>
       <path id="MicrosoftYaHei-529f" d="M 2500 3978 
L 3475 3978 
Q 3488 4538 3494 5278 
L 4000 5278 
Q 3991 4531 3975 3978 
L 5969 3978 
Q 5913 1791 5844 291 
Q 5775 -691 4956 -709 
Q 4413 -716 3756 -684 
Q 3713 -397 3656 -122 
Q 4306 -197 4844 -191 
Q 5313 -178 5344 378 
Q 5425 1847 5450 3497 
L 3963 3497 
Q 3950 3003 3931 2734 
Q 3813 266 1938 -847 
Q 1800 -653 1575 -422 
Q 3325 553 3431 2772 
Q 3450 3063 3463 3497 
L 2500 3497 
L 2500 3978 
z
M 81 822 
Q 619 941 1119 1056 
L 1119 4134 
L 169 4134 
L 169 4622 
L 2675 4622 
L 2675 4134 
L 1625 4134 
L 1625 1178 
Q 2166 1313 2656 1447 
Q 2669 1122 2700 947 
Q 1594 672 225 291 
L 81 822 
z
" transform="scale(0.015625)"/>
       <path id="MicrosoftYaHei-7387" d="M 2525 2009 
Q 2622 2016 3928 2081 
Q 3772 2300 3625 2491 
L 3963 2703 
Q 4413 2203 4794 1653 
L 4394 1403 
Q 4284 1569 4178 1725 
Q 2991 1659 2213 1597 
Q 2075 1584 1881 1541 
L 1725 1966 
Q 1913 2028 2006 2084 
Q 2534 2441 3050 2913 
Q 2597 2894 2275 2866 
Q 2144 2847 1988 2809 
L 1800 3191 
Q 1956 3247 2088 3366 
Q 2509 3722 2875 4228 
L 231 4228 
L 231 4666 
L 3031 4666 
Q 2878 4944 2744 5153 
L 3194 5372 
Q 3438 5000 3616 4666 
L 6175 4666 
L 6175 4228 
L 3053 4228 
L 3350 4072 
Q 2844 3553 2494 3247 
Q 2850 3256 3425 3269 
Q 3675 3519 3925 3797 
L 4356 3547 
Q 3363 2603 2525 2009 
z
M 144 991 
L 2994 991 
L 2994 1541 
L 3488 1541 
L 3488 991 
L 6275 991 
L 6275 553 
L 3488 553 
L 3488 -853 
L 2994 -853 
L 2994 553 
L 144 553 
L 144 991 
z
M 1719 2672 
L 1944 2303 
Q 1200 1866 425 1409 
L 163 1828 
Q 813 2134 1719 2672 
z
M 4856 2678 
Q 5750 2172 6250 1816 
L 5975 1409 
Q 5331 1909 4600 2341 
L 4856 2678 
z
M 5994 3591 
Q 5519 3178 4963 2809 
L 4644 3141 
Q 5244 3534 5638 3928 
L 5994 3591 
z
M 363 3634 
L 681 3941 
Q 1200 3528 1588 3159 
L 1238 2816 
Q 875 3197 363 3634 
z
" transform="scale(0.015625)"/>
       <path id="ArialMT-20" transform="scale(0.015625)"/>
       <path id="ArialMT-2f" d="M 0 -78 
L 1328 4659 
L 1778 4659 
L 453 -78 
L 0 -78 
z
" transform="scale(0.015625)"/>
       <path id="ArialMT-6b" d="M 425 0 
L 425 4581 
L 988 4581 
L 988 1969 
L 2319 3319 
L 3047 3319 
L 1778 2088 
L 3175 0 
L 2481 0 
L 1384 1697 
L 988 1316 
L 988 0 
L 425 0 
z
" transform="scale(0.015625)"/>
       <path id="ArialMT-57" d="M 1294 0 
L 78 4581 
L 700 4581 
L 1397 1578 
Q 1509 1106 1591 641 
Q 1766 1375 1797 1488 
L 2669 4581 
L 3400 4581 
L 4056 2263 
Q 4303 1400 4413 641 
Q 4500 1075 4641 1638 
L 5359 4581 
L 5969 4581 
L 4713 0 
L 4128 0 
L 3163 3491 
Q 3041 3928 3019 4028 
Q 2947 3713 2884 3491 
L 1913 0 
L 1294 0 
z
" transform="scale(0.015625)"/>
      </defs>
      <use xlink:href="#MicrosoftYaHei-529f"/>
      <use xlink:href="#MicrosoftYaHei-7387" transform="translate(100 0)"/>
      <use xlink:href="#ArialMT-20" transform="translate(200 0)"/>
      <use xlink:href="#ArialMT-2f" transform="translate(227.783203 0)"/>
      <use xlink:href="#ArialMT-20" transform="translate(255.566406 0)"/>
      <use xlink:href="#ArialMT-6b" transform="translate(283.349609 0)"/>
      <use xlink:href="#ArialMT-57" transform="translate(333.349609 0)"/>
     </g>
    </g>
   </g>
   <g id="patch_3">
    <path d="M 50.527559 127.644094 
L 50.527559 127.644094 
L 53.151575 127.644094 
L 53.151575 127.644094 
L 55.775591 127.644094 
L 55.775591 127.644094 
L 58.399606 127.644094 
L 58.399606 127.644094 
L 61.023622 127.644094 
L 61.023622 127.644094 
L 63.647638 127.644094 
L 63.647638 127.644094 
L 66.271654 127.644094 
L 66.271654 127.644094 
L 68.895669 127.644094 
L 68.895669 127.644094 
L 71.519685 127.644094 
L 71.519685 127.644094 
L 74.143701 127.644094 
L 74.143701 127.644094 
L 76.767717 127.644094 
L 76.767717 127.644094 
L 79.391732 127.644094 
L 79.391732 127.644094 
L 82.015748 127.644094 
L 82.015748 127.644094 
L 84.639764 127.644094 
L 84.639764 127.644094 
L 87.26378 127.644094 
L 87.26378 127.644094 
L 89.887795 127.644094 
L 89.887795 127.644094 
L 92.511811 127.644094 
L 92.511811 127.644094 
L 95.135827 127.644094 
L 95.135827 127.644094 
L 97.759843 127.644094 
L 97.759843 127.644094 
L 100.383858 127.644094 
L 100.383858 127.644094 
L 103.007874 127.644094 
L 103.007874 127.644094 
L 105.63189 127.644094 
L 105.63189 127.644094 
L 108.255906 127.644094 
L 108.255906 127.644094 
L 110.879921 127.644094 
L 110.879921 127.644094 
L 113.503937 127.644094 
L 113.503937 127.644094 
L 116.127953 127.644094 
L 116.127953 127.644094 
L 118.751969 127.644094 
L 118.751969 127.644094 
L 121.375984 127.644094 
L 121.375984 127.636202 
L 124 127.636202 
L 124 127.641007 
L 126.624016 127.641007 
L 126.624016 127.640296 
L 129.248031 127.640296 
L 129.248031 127.398143 
L 131.872047 127.398143 
L 131.872047 126.92684 
L 134.496063 126.92684 
L 134.496063 126.209161 
L 137.120079 126.209161 
L 137.120079 125.219084 
L 139.744094 125.219084 
L 139.744094 123.995811 
L 142.36811 123.995811 
L 142.36811 122.527702 
L 144.992126 122.527702 
L 144.992126 120.77991 
L 147.616142 120.77991 
L 147.616142 118.785134 
L 150.240157 118.785134 
L 150.240157 116.527381 
L 152.864173 116.527381 
L 152.864173 113.953731 
L 155.488189 113.953731 
L 155.488189 111.061222 
L 158.112205 111.061222 
L 158.112205 107.778531 
L 160.73622 107.778531 
L 160.73622 104.054918 
L 163.360236 104.054918 
L 163.360236 100.182547 
L 165.984252 100.182547 
L 165.984252 96.287807 
L 168.608268 96.287807 
L 168.608268 92.312222 
L 171.232283 92.312222 
L 171.232283 88.319968 
L 173.856299 88.319968 
L 173.856299 84.332075 
L 176.480315 84.332075 
L 176.480315 80.326952 
L 179.104331 80.326952 
L 179.104331 76.411179 
L 181.728346 76.411179 
L 181.728346 72.584465 
L 184.352362 72.584465 
L 184.352362 68.760182 
L 186.976378 68.760182 
L 186.976378 65.059182 
L 189.600394 65.059182 
L 189.600394 61.515952 
L 192.224409 61.515952 
L 192.224409 58.046133 
L 194.848425 58.046133 
L 194.848425 54.651946 
L 197.472441 54.651946 
L 197.472441 51.422706 
L 200.096457 51.422706 
L 200.096457 48.476762 
L 202.720472 48.476762 
L 202.720472 45.790208 
L 205.344488 45.790208 
L 205.344488 43.242986 
L 207.968504 43.242986 
L 207.968504 40.743888 
L 210.59252 40.743888 
L 210.59252 38.540371 
L 213.216535 38.540371 
L 213.216535 36.593204 
L 215.840551 36.593204 
L 215.840551 34.623109 
L 218.464567 34.623109 
L 218.464567 32.868796 
L 221.088583 32.868796 
L 221.088583 31.477173 
L 223.712598 31.477173 
L 223.712598 30.363553 
L 226.336614 30.363553 
L 226.336614 29.42149 
L 228.96063 29.42149 
L 228.96063 28.611766 
L 231.584646 28.611766 
L 231.584646 27.986489 
L 234.208661 27.986489 
L 234.208661 27.671117 
L 236.832677 27.671117 
L 236.832677 27.554062 
L 239.456693 27.554062 
L 239.456693 27.405624 
L 242.080709 27.405624 
L 242.080709 27.532874 
L 244.704724 27.532874 
L 244.704724 28.17106 
L 247.32874 28.17106 
L 247.32874 29.243573 
L 249.952756 29.243573 
L 249.952756 30.288069 
L 252.576772 30.288069 
L 252.576772 31.349659 
L 255.200787 31.349659 
L 255.200787 32.906858 
L 257.824803 32.906858 
L 257.824803 34.768855 
L 260.448819 34.768855 
L 260.448819 36.648323 
L 263.072835 36.648323 
L 263.072835 38.465483 
L 265.69685 38.465483 
L 265.69685 40.638818 
L 268.320866 40.638818 
L 268.320866 43.20461 
L 270.944882 43.20461 
L 270.944882 45.818348 
L 273.568898 45.818348 
L 273.568898 48.627129 
L 276.192913 48.627129 
L 276.192913 51.704865 
L 278.816929 51.704865 
L 278.816929 54.937263 
L 281.440945 54.937263 
L 281.440945 58.265137 
L 284.064961 58.265137 
L 284.064961 61.676498 
L 286.688976 61.676498 
L 286.688976 65.182682 
L 289.312992 65.182682 
L 289.312992 68.767315 
L 291.937008 68.767315 
L 291.937008 72.494123 
L 294.561024 72.494123 
L 294.561024 76.428825 
L 297.185039 76.428825 
L 297.185039 80.310712 
L 299.809055 80.310712 
L 299.809055 84.13872 
L 302.433071 84.13872 
L 302.433071 88.161038 
L 305.057087 88.161038 
L 305.057087 92.256418 
L 307.681102 92.256418 
L 307.681102 96.262567 
L 310.305118 96.262567 
L 310.305118 100.134641 
L 312.929134 100.134641 
L 312.929134 104.059234 
L 315.55315 104.059234 
L 315.55315 107.869436 
L 318.177165 107.869436 
L 318.177165 111.116069 
L 320.801181 111.116069 
L 320.801181 113.99774 
L 323.425197 113.99774 
L 323.425197 116.625464 
L 326.049213 116.625464 
L 326.049213 118.884373 
L 328.673228 118.884373 
L 328.673228 120.840542 
L 331.297244 120.840542 
L 331.297244 122.552409 
L 333.92126 122.552409 
L 333.92126 124.012467 
L 336.545276 124.012467 
L 336.545276 125.234987 
L 339.169291 125.234987 
L 339.169291 126.217462 
L 341.793307 126.217462 
L 341.793307 126.928916 
L 344.417323 126.928916 
L 344.417323 127.398422 
L 347.041339 127.398422 
L 347.041339 127.640469 
L 349.665354 127.640469 
L 349.665354 127.641071 
L 352.28937 127.641071 
L 352.28937 127.636185 
L 354.913386 127.636185 
L 354.913386 127.644094 
L 357.537402 127.644094 
L 357.537402 127.644094 
L 360.161417 127.644094 
L 360.161417 127.644094 
L 362.785433 127.644094 
L 362.785433 127.644094 
L 365.409449 127.644094 
L 365.409449 127.644094 
L 368.033465 127.644094 
L 368.033465 127.644094 
L 370.65748 127.644094 
L 370.65748 127.644094 
L 373.281496 127.644094 
L 373.281496 127.644094 
L 375.905512 127.644094 
L 375.905512 127.644094 
L 378.529528 127.644094 
L 378.529528 127.644094 
L 381.153543 127.644094 
L 381.153543 127.644094 
L 383.777559 127.644094 
L 383.777559 127.644094 
L 386.401575 127.644094 
L 386.401575 127.644094 
L 389.025591 127.644094 
L 389.025591 127.644094 
L 391.649606 127.644094 
L 391.649606 127.644094 
L 394.273622 127.644094 
L 394.273622 127.644094 
L 396.897638 127.644094 
L 396.897638 127.644094 
L 399.521654 127.644094 
L 399.521654 127.644094 
L 402.145669 127.644094 
L 402.145669 127.644094 
L 404.769685 127.644094 
L 404.769685 127.644094 
L 407.393701 127.644094 
L 407.393701 127.644094 
L 410.017717 127.644094 
L 410.017717 127.644094 
L 412.641732 127.644094 
L 412.641732 127.644094 
L 415.265748 127.644094 
L 415.265748 127.644094 
L 417.889764 127.644094 
L 417.889764 127.644094 
L 420.51378 127.644094 
L 420.51378 127.644094 
L 423.137795 127.644094 
L 423.137795 127.644094 
L 425.761811 127.644094 
L 425.761811 127.644094 
L 428.385827 127.644094 
L 428.385827 127.644094 
" clip-path="url(#peec3df3e84)" style="fill: #fbe4b6"/>
   </g>
   <g id="patch_4">
    <path d="M 50.527559 82.348424 
L 58.399606 82.289741 
L 58.399606 82.15621 
L 66.271654 82.08515 
L 66.271654 81.988786 
L 74.143701 81.991287 
L 74.143701 81.786863 
L 76.767717 81.786863 
L 76.767717 81.62106 
L 82.015748 81.576813 
L 82.015748 81.487466 
L 87.26378 81.389902 
L 87.26378 81.334204 
L 97.759843 81.278516 
L 97.759843 81.201766 
L 100.383858 81.201766 
L 100.383858 81.065356 
L 108.255906 81.012772 
L 108.255906 80.945367 
L 110.879921 80.945367 
L 110.879921 80.763526 
L 121.375984 80.765893 
L 121.375984 80.494281 
L 126.624016 80.411823 
L 126.624016 80.617935 
L 129.248031 80.617935 
L 129.248031 80.73574 
L 131.872047 80.73574 
L 131.872047 80.35303 
L 134.496063 80.35303 
L 134.496063 80.506784 
L 137.120079 80.506784 
L 137.120079 81.739112 
L 139.744094 81.739112 
L 139.744094 77.291242 
L 142.36811 77.291242 
L 142.36811 69.730566 
L 144.992126 69.730566 
L 144.992126 68.993957 
L 147.616142 68.993957 
L 147.616142 70.07663 
L 150.240157 70.07663 
L 150.240157 69.797982 
L 155.488189 69.908032 
L 155.488189 69.247263 
L 158.112205 69.247263 
L 158.112205 68.079526 
L 163.360236 68.071414 
L 163.360236 67.784161 
L 165.984252 67.784161 
L 165.984252 68.082348 
L 168.608268 68.082348 
L 168.608268 69.924347 
L 171.232283 69.924347 
L 171.232283 62.983486 
L 173.856299 62.983486 
L 173.856299 51.2736 
L 176.480315 51.2736 
L 176.480315 50.153098 
L 179.104331 50.153098 
L 179.104331 51.953874 
L 181.728346 51.953874 
L 181.728346 51.677522 
L 184.352362 51.677522 
L 184.352362 51.873034 
L 186.976378 51.873034 
L 186.976378 50.951671 
L 189.600394 50.951671 
L 189.600394 49.238794 
L 194.848425 49.17678 
L 194.848425 49.564104 
L 200.096457 49.640117 
L 200.096457 49.853395 
L 202.720472 49.853395 
L 202.720472 49.964794 
L 210.59252 49.98648 
L 210.59252 50.127673 
L 213.216535 50.127673 
L 213.216535 50.302622 
L 215.840551 50.302622 
L 215.840551 50.505935 
L 218.464567 50.505935 
L 218.464567 50.677592 
L 226.336614 50.760346 
L 226.336614 50.961453 
L 228.96063 50.961453 
L 228.96063 51.075285 
L 231.584646 51.075285 
L 231.584646 50.843504 
L 234.208661 50.843504 
L 234.208661 52.416995 
L 236.832677 52.416995 
L 236.832677 54.964204 
L 239.456693 54.964204 
L 239.456693 55.289056 
L 242.080709 55.289056 
L 242.080709 55.030152 
L 244.704724 55.030152 
L 244.704724 55.407064 
L 247.32874 55.407064 
L 247.32874 55.716065 
L 249.952756 55.716065 
L 249.952756 54.349973 
L 252.576772 54.349973 
L 252.576772 52.247737 
L 255.200787 52.247737 
L 255.200787 52.066797 
L 257.824803 52.066797 
L 257.824803 52.393521 
L 265.69685 52.478257 
L 265.69685 52.627455 
L 270.944882 52.68829 
L 270.944882 52.756357 
L 276.192913 52.863901 
L 276.192913 52.989144 
L 284.064961 52.946344 
L 284.064961 52.820547 
L 286.688976 52.820547 
L 286.688976 52.994823 
L 289.312992 52.994823 
L 289.312992 53.161456 
L 297.185039 53.079344 
L 297.185039 52.991662 
L 310.305118 53.036003 
L 310.305118 52.731231 
L 312.929134 52.731231 
L 312.929134 53.855454 
L 315.55315 53.855454 
L 315.55315 55.65879 
L 323.425197 55.684933 
L 323.425197 55.319934 
L 326.049213 55.319934 
L 326.049213 53.617518 
L 328.673228 53.617518 
L 328.673228 60.603346 
L 331.297244 60.603346 
L 331.297244 72.225941 
L 333.92126 72.225941 
L 333.92126 73.355851 
L 336.545276 73.355851 
L 336.545276 71.602215 
L 339.169291 71.602215 
L 339.169291 71.997035 
L 344.417323 71.899776 
L 344.417323 71.726959 
L 354.913386 71.655112 
L 354.913386 71.592399 
L 357.537402 71.592399 
L 357.537402 71.451325 
L 365.409449 71.43453 
L 365.409449 71.256047 
L 368.033465 71.256047 
L 368.033465 71.13121 
L 378.529528 71.085009 
L 378.529528 70.995241 
L 381.153543 70.995241 
L 381.153543 70.745957 
L 383.777559 70.745957 
L 383.777559 70.99131 
L 386.401575 70.99131 
L 386.401575 70.723387 
L 389.025591 70.723387 
L 389.025591 69.325842 
L 391.649606 69.325842 
L 391.649606 74.575198 
L 394.273622 74.575198 
L 394.273622 83.363733 
L 396.897638 83.363733 
L 396.897638 84.066223 
L 399.521654 84.066223 
L 399.521654 82.702513 
L 402.145669 82.702513 
L 402.145669 83.111048 
L 407.393701 83.050108 
L 407.393701 82.86674 
L 415.265748 82.781197 
L 415.265748 82.660435 
L 420.51378 82.583675 
L 420.51378 82.482135 
L 423.137795 82.482135 
L 423.137795 82.358768 
L 428.385827 82.284173 
L 428.385827 82.284173 
" clip-path="url(#peec3df3e84)" style="fill: none; stroke: #295d74; stroke-linejoin: miter"/>
   </g>
   <g id="patch_5">
    <path d="M 50.527559 127.644094 
L 50.527559 22.393701 
" style="fill: none; stroke: #262626; stroke-width: 0.65; stroke-linejoin: miter; stroke-linecap: square"/>
   </g>
   <g id="patch_6">
    <path d="M 50.527559 127.644094 
L 428.385827 127.644094 
" style="fill: none; stroke: #262626; stroke-width: 0.65; stroke-linejoin: miter; stroke-linecap: square"/>
   </g>
   <g id="text_6">
    <!-- (a) -->
    <g style="fill: #262626" transform="translate(42.970394 12.711017) scale(0.11 -0.11)">
     <defs>
      <path id="Arial-BoldMT-28" d="M 1916 -1347 
L 1313 -1347 
Q 834 -625 584 153 
Q 334 931 334 1659 
Q 334 2563 644 3369 
Q 913 4069 1325 4659 
L 1925 4659 
Q 1497 3713 1336 3048 
Q 1175 2384 1175 1641 
Q 1175 1128 1270 590 
Q 1366 53 1531 -431 
Q 1641 -750 1916 -1347 
z
" transform="scale(0.015625)"/>
      <path id="Arial-BoldMT-61" d="M 1116 2306 
L 319 2450 
Q 453 2931 781 3162 
Q 1109 3394 1756 3394 
Q 2344 3394 2631 3255 
Q 2919 3116 3036 2902 
Q 3153 2688 3153 2116 
L 3144 1091 
Q 3144 653 3186 445 
Q 3228 238 3344 0 
L 2475 0 
Q 2441 88 2391 259 
Q 2369 338 2359 363 
Q 2134 144 1878 34 
Q 1622 -75 1331 -75 
Q 819 -75 523 203 
Q 228 481 228 906 
Q 228 1188 362 1408 
Q 497 1628 739 1745 
Q 981 1863 1438 1950 
Q 2053 2066 2291 2166 
L 2291 2253 
Q 2291 2506 2166 2614 
Q 2041 2722 1694 2722 
Q 1459 2722 1328 2630 
Q 1197 2538 1116 2306 
z
M 2291 1594 
Q 2122 1538 1756 1459 
Q 1391 1381 1278 1306 
Q 1106 1184 1106 997 
Q 1106 813 1243 678 
Q 1381 544 1594 544 
Q 1831 544 2047 700 
Q 2206 819 2256 991 
Q 2291 1103 2291 1419 
L 2291 1594 
z
" transform="scale(0.015625)"/>
      <path id="Arial-BoldMT-29" d="M 216 -1347 
Q 475 -791 581 -494 
Q 688 -197 778 190 
Q 869 578 912 926 
Q 956 1275 956 1641 
Q 956 2384 797 3048 
Q 638 3713 209 4659 
L 806 4659 
Q 1278 3988 1539 3234 
Q 1800 2481 1800 1706 
Q 1800 1053 1594 306 
Q 1359 -531 822 -1347 
L 216 -1347 
z
" transform="scale(0.015625)"/>
     </defs>
     <use xlink:href="#Arial-BoldMT-28"/>
     <use xlink:href="#Arial-BoldMT-61" transform="translate(33.300781 0)"/>
     <use xlink:href="#Arial-BoldMT-29" transform="translate(88.916016 0)"/>
    </g>
   </g>
   <g id="text_7">
    <!-- 供需曲线 -->
    <g style="fill: #262626" transform="translate(219.456693 13.393701) scale(0.1 -0.1)">
     <defs>
      <path id="MicrosoftYaHei-4f9b" d="M 4669 5259 
L 5181 5259 
L 5181 3884 
L 6075 3884 
L 6075 3434 
L 5181 3434 
L 5181 1709 
L 6294 1709 
L 6294 1259 
L 1750 1259 
L 1750 1709 
L 2806 1709 
L 2806 3434 
L 2000 3434 
L 2000 3884 
L 2806 3884 
L 2806 5253 
L 3319 5253 
L 3319 3884 
L 4669 3884 
L 4669 5259 
z
M 25 2309 
Q 1006 3628 1569 5316 
L 2069 5134 
Q 1747 4300 1400 3603 
L 1400 -841 
L 900 -841 
L 900 2694 
Q 578 2169 238 1747 
Q 150 2003 25 2309 
z
M 3319 1709 
L 4669 1709 
L 4669 3434 
L 3319 3434 
L 3319 1709 
z
M 4369 766 
L 4738 1078 
Q 5725 166 6281 -447 
L 5869 -828 
Q 5231 -72 4369 766 
z
M 3625 753 
Q 2888 -147 2088 -853 
Q 1919 -659 1706 -491 
Q 2500 109 3194 1053 
L 3625 753 
z
" transform="scale(0.015625)"/>
      <path id="MicrosoftYaHei-9700" d="M 1188 -822 
L 713 -822 
L 713 1228 
L 2750 1228 
L 2853 1716 
L 125 1716 
L 125 2103 
L 6275 2103 
L 6275 1716 
L 3338 1716 
L 3213 1228 
L 5719 1228 
L 5719 -172 
Q 5719 -791 5100 -791 
Q 4800 -791 4444 -778 
Q 4425 -572 4356 -297 
Q 4725 -334 4963 -334 
Q 5244 -334 5244 -84 
L 5244 841 
L 4169 841 
L 4169 -647 
L 3725 -647 
L 3725 841 
L 2688 841 
L 2688 -647 
L 2244 -647 
L 2244 841 
L 1188 841 
L 1188 -822 
z
M 338 4266 
L 2975 4266 
L 2975 4628 
L 650 4628 
L 650 5016 
L 5700 5016 
L 5700 4628 
L 3419 4628 
L 3419 4266 
L 6063 4266 
L 6063 3103 
L 5581 3103 
L 5581 3878 
L 3419 3878 
L 3419 2391 
L 2975 2391 
L 2975 3878 
L 819 3878 
L 819 3103 
L 338 3103 
L 338 4266 
z
M 3750 2816 
L 5219 2816 
L 5219 2478 
L 3750 2478 
L 3750 2816 
z
M 1175 3516 
L 2644 3516 
L 2644 3178 
L 1175 3178 
L 1175 3516 
z
M 1175 2816 
L 2644 2816 
L 2644 2478 
L 1175 2478 
L 1175 2816 
z
M 3750 3516 
L 5219 3516 
L 5219 3178 
L 3750 3178 
L 3750 3516 
z
" transform="scale(0.015625)"/>
      <path id="MicrosoftYaHei-66f2" d="M 2163 5322 
L 2625 5322 
L 2625 4291 
L 3775 4291 
L 3775 5328 
L 4238 5328 
L 4238 4291 
L 5850 4291 
L 5850 -822 
L 5388 -822 
L 5388 -409 
L 1013 -409 
L 1013 -822 
L 550 -822 
L 550 4291 
L 2163 4291 
L 2163 5322 
z
M 1013 41 
L 2163 41 
L 2163 1753 
L 1013 1753 
L 1013 41 
z
M 4238 41 
L 5388 41 
L 5388 1753 
L 4238 1753 
L 4238 41 
z
M 2625 41 
L 3775 41 
L 3775 1753 
L 2625 1753 
L 2625 41 
z
M 1013 2203 
L 2163 2203 
L 2163 3841 
L 1013 3841 
L 1013 2203 
z
M 5388 3841 
L 4238 3841 
L 4238 2203 
L 5388 2203 
L 5388 3841 
z
M 2625 2203 
L 3775 2203 
L 3775 3841 
L 2625 3841 
L 2625 2203 
z
" transform="scale(0.015625)"/>
      <path id="MicrosoftYaHei-7ebf" d="M 1969 -347 
Q 3144 75 4003 631 
Q 3781 1197 3653 1972 
L 2319 1784 
L 2244 2234 
L 3591 2422 
Q 3538 2859 3513 3356 
L 2381 3228 
L 2306 3678 
L 3488 3809 
Q 3453 4459 3425 5303 
L 3938 5303 
Q 3953 4497 3978 3866 
L 6069 4103 
L 6125 3659 
L 3997 3413 
Q 4019 2919 4069 2488 
L 6225 2791 
L 6281 2347 
L 4128 2041 
Q 4234 1394 4416 916 
Q 5078 1416 5519 2009 
L 5925 1703 
Q 5363 1025 4619 475 
Q 4859 44 5194 -184 
Q 5606 -428 5725 66 
Q 5806 466 5856 953 
Q 6144 828 6338 772 
Q 6231 97 6125 -247 
Q 5944 -778 5506 -778 
Q 5050 -778 4663 -403 
Q 4409 -163 4209 194 
Q 3350 -363 2281 -772 
Q 2169 -597 1969 -347 
z
M 900 1541 
Q 1456 1622 2213 1753 
Q 2175 1522 2156 1272 
Q 1113 1109 325 978 
L 225 1447 
Q 659 1913 1178 2775 
Q 672 2747 225 2703 
L 106 3128 
Q 688 3922 1300 5353 
L 1775 5166 
Q 1131 3897 669 3166 
Q 1041 3178 1422 3194 
Q 1638 3578 1869 4028 
L 2331 3797 
Q 1569 2478 900 1541 
z
M 106 97 
Q 1206 334 2331 616 
Q 2313 366 2313 141 
Q 1269 -103 244 -378 
L 106 97 
z
M 4463 4972 
L 4731 5284 
Q 5175 5003 5681 4609 
L 5381 4247 
Q 4863 4691 4463 4972 
z
" transform="scale(0.015625)"/>
     </defs>
     <use xlink:href="#MicrosoftYaHei-4f9b"/>
     <use xlink:href="#MicrosoftYaHei-9700" transform="translate(100 0)"/>
     <use xlink:href="#MicrosoftYaHei-66f2" transform="translate(200 0)"/>
     <use xlink:href="#MicrosoftYaHei-7ebf" transform="translate(300 0)"/>
    </g>
   </g>
   <g id="legend_1">
    <g id="patch_7">
     <path d="M 58.627559 37.458857 
L 76.627559 37.458857 
L 76.627559 31.158857 
L 58.627559 31.158857 
z
" style="fill: #fbe4b6"/>
    </g>
    <g id="text_8">
     <!-- 光伏 -->
     <g style="fill: #262626" transform="translate(83.827559 37.458857) scale(0.09 -0.09)">
      <defs>
       <path id="MicrosoftYaHei-5149" d="M 169 2691 
L 2931 2691 
L 2931 5309 
L 3444 5309 
L 3444 2691 
L 6256 2691 
L 6256 2228 
L 4206 2228 
L 4206 216 
Q 4206 -22 4269 -116 
Q 4356 -241 4638 -241 
L 5256 -241 
Q 5706 -241 5750 91 
Q 5794 428 5819 984 
Q 6056 884 6344 797 
Q 6288 153 6231 -122 
Q 6175 -441 5963 -559 
Q 5763 -678 5281 -678 
L 4538 -678 
Q 4056 -678 3863 -466 
Q 3700 -284 3700 141 
L 3700 2228 
L 2491 2228 
Q 2466 931 1988 266 
Q 1469 -459 369 -841 
Q 244 -647 50 -397 
Q 1150 -16 1569 603 
Q 1966 1134 1991 2228 
L 169 2228 
L 169 2691 
z
M 4094 3397 
Q 4813 4084 5369 4828 
L 5825 4503 
Q 5200 3766 4481 3059 
L 4094 3397 
z
M 619 4528 
L 1000 4828 
Q 1631 4134 2213 3434 
L 1756 3084 
Q 1188 3866 619 4528 
z
" transform="scale(0.015625)"/>
       <path id="MicrosoftYaHei-4f0f" d="M 1844 3416 
L 3691 3416 
Q 3719 4347 3719 5316 
L 4225 5316 
Q 4219 4578 4197 3416 
L 6269 3416 
L 6269 2959 
L 4209 2959 
Q 4597 781 6313 -316 
Q 6063 -584 5888 -791 
Q 4441 331 4000 2022 
Q 3625 378 1956 -847 
Q 1806 -641 1613 -403 
Q 3503 894 3669 2959 
L 1844 2959 
L 1844 3416 
z
M 88 2328 
Q 1056 3634 1556 5284 
L 2063 5116 
Q 1753 4247 1388 3516 
L 1388 -809 
L 913 -809 
L 913 2659 
Q 616 2178 288 1772 
Q 194 2041 88 2328 
z
M 5006 5028 
Q 5519 4522 5913 4116 
Q 5719 3947 5531 3766 
Q 5106 4272 4675 4728 
L 5006 5028 
z
" transform="scale(0.015625)"/>
      </defs>
      <use xlink:href="#MicrosoftYaHei-5149"/>
      <use xlink:href="#MicrosoftYaHei-4f0f" transform="translate(100 0)"/>
     </g>
    </g>
    <g id="line2d_14">
     <path d="M 119.827559 34.308857 
L 137.827559 34.308857 
" style="fill: none; stroke: #295d74; stroke-linecap: square"/>
    </g>
    <g id="text_9">
     <!-- 负载 -->
     <g style="fill: #262626" transform="translate(145.027559 37.458857) scale(0.09 -0.09)">
      <defs>
       <path id="MicrosoftYaHei-8d1f" d="M 963 3353 
L 3250 3353 
Q 3556 3659 4031 4216 
L 1819 4216 
Q 1163 3503 463 3009 
Q 325 3172 94 3384 
Q 1356 4303 2094 5334 
L 2600 5147 
Q 2406 4891 2213 4659 
L 4700 4659 
L 4700 4241 
Q 4294 3778 3881 3353 
L 5600 3353 
L 5600 641 
L 5100 641 
L 5100 2909 
L 1463 2909 
L 1463 603 
L 963 603 
L 963 3353 
z
M 188 -403 
Q 1806 -97 2550 422 
Q 3019 728 3019 1603 
L 3019 2609 
L 3525 2609 
L 3525 1716 
Q 3525 1297 3469 997 
Q 4906 334 6163 -416 
L 5831 -878 
Q 4513 -53 3325 534 
Q 2863 -391 475 -891 
Q 344 -653 188 -403 
z
" transform="scale(0.015625)"/>
       <path id="MicrosoftYaHei-8f7d" d="M 2881 -416 
Q 3622 91 4213 806 
Q 3894 1769 3806 3234 
L 125 3234 
L 125 3653 
L 1681 3653 
L 1681 4234 
L 381 4234 
L 381 4628 
L 1681 4628 
L 1681 5266 
L 2144 5266 
L 2144 4628 
L 3375 4628 
L 3375 4234 
L 2144 4234 
L 2144 3653 
L 3781 3653 
Q 3744 4397 3713 5297 
L 4194 5297 
Q 4197 4419 4241 3653 
L 6319 3653 
L 6319 3234 
L 4266 3234 
Q 4331 2081 4563 1269 
Q 5034 1941 5394 2766 
L 5825 2566 
Q 5344 1531 4744 738 
Q 4938 278 5200 -34 
Q 5363 -222 5500 -222 
Q 5669 -222 5725 28 
Q 5800 366 5869 878 
Q 6119 766 6319 709 
Q 6238 178 6138 -234 
Q 5981 -791 5581 -791 
Q 5125 -791 4713 -209 
Q 4544 22 4406 319 
Q 3869 -297 3250 -741 
Q 3063 -528 2881 -416 
z
M 1006 1472 
L 1863 1472 
L 1863 2047 
L 2306 2047 
L 2306 1472 
L 3488 1472 
L 3488 1078 
L 2306 1078 
L 2306 497 
Q 2878 544 3513 597 
Q 3494 397 3494 191 
Q 2931 153 2306 100 
L 2306 -816 
L 1863 -816 
L 1863 59 
Q 1128 -3 313 -91 
L 213 359 
Q 956 400 1863 466 
L 1863 1078 
L 488 1078 
L 488 1484 
Q 741 1813 984 2216 
L 275 2216 
L 275 2609 
L 1213 2609 
Q 1366 2888 1513 3197 
L 1975 3053 
Q 1847 2819 1725 2609 
L 3538 2609 
L 3538 2216 
L 1491 2216 
Q 1231 1791 1006 1472 
z
M 4613 4841 
L 4919 5147 
Q 5550 4672 5944 4303 
L 5588 3941 
Q 5163 4397 4613 4841 
z
" transform="scale(0.015625)"/>
      </defs>
      <use xlink:href="#MicrosoftYaHei-8d1f"/>
      <use xlink:href="#MicrosoftYaHei-8f7d" transform="translate(100 0)"/>
     </g>
    </g>
   </g>
  </g>
  <g id="axes_2">
   <g id="patch_8">
    <path d="M 50.527559 190.346457 
L 428.385827 190.346457 
L 428.385827 150.037795 
L 50.527559 150.037795 
z
" style="fill: #ffffff"/>
   </g>
   <g id="matplotlib.axis_3">
    <g id="xtick_6">
     <g id="line2d_15">
      <g>
       <use xlink:href="#m93ae4f0a39" x="50.527559" y="190.346457" style="fill: #262626; stroke: #262626; stroke-width: 0.8"/>
      </g>
     </g>
     <g id="text_10">
      <!-- 0 -->
      <g style="fill: #262626" transform="translate(48.025137 203.288488) scale(0.09 -0.09)">
       <use xlink:href="#ArialMT-30"/>
      </g>
     </g>
    </g>
    <g id="xtick_7">
     <g id="line2d_16">
      <g>
       <use xlink:href="#m93ae4f0a39" x="144.992126" y="190.346457" style="fill: #262626; stroke: #262626; stroke-width: 0.8"/>
      </g>
     </g>
     <g id="text_11">
      <!-- 6 -->
      <g style="fill: #262626" transform="translate(142.489704 203.288488) scale(0.09 -0.09)">
       <use xlink:href="#ArialMT-36"/>
      </g>
     </g>
    </g>
    <g id="xtick_8">
     <g id="line2d_17">
      <g>
       <use xlink:href="#m93ae4f0a39" x="239.456693" y="190.346457" style="fill: #262626; stroke: #262626; stroke-width: 0.8"/>
      </g>
     </g>
     <g id="text_12">
      <!-- 12 -->
      <g style="fill: #262626" transform="translate(234.451849 203.288488) scale(0.09 -0.09)">
       <defs>
        <path id="ArialMT-31" d="M 2384 0 
L 1822 0 
L 1822 3584 
Q 1619 3391 1289 3197 
Q 959 3003 697 2906 
L 697 3450 
Q 1169 3672 1522 3987 
Q 1875 4303 2022 4600 
L 2384 4600 
L 2384 0 
z
" transform="scale(0.015625)"/>
       </defs>
       <use xlink:href="#ArialMT-31"/>
       <use xlink:href="#ArialMT-32" transform="translate(55.615234 0)"/>
      </g>
     </g>
    </g>
    <g id="xtick_9">
     <g id="line2d_18">
      <g>
       <use xlink:href="#m93ae4f0a39" x="333.92126" y="190.346457" style="fill: #262626; stroke: #262626; stroke-width: 0.8"/>
      </g>
     </g>
     <g id="text_13">
      <!-- 18 -->
      <g style="fill: #262626" transform="translate(328.916416 203.288488) scale(0.09 -0.09)">
       <defs>
        <path id="ArialMT-38" d="M 1131 2484 
Q 781 2613 612 2850 
Q 444 3088 444 3419 
Q 444 3919 803 4259 
Q 1163 4600 1759 4600 
Q 2359 4600 2725 4251 
Q 3091 3903 3091 3403 
Q 3091 3084 2923 2848 
Q 2756 2613 2416 2484 
Q 2838 2347 3058 2040 
Q 3278 1734 3278 1309 
Q 3278 722 2862 322 
Q 2447 -78 1769 -78 
Q 1091 -78 675 323 
Q 259 725 259 1325 
Q 259 1772 486 2073 
Q 713 2375 1131 2484 
z
M 1019 3438 
Q 1019 3113 1228 2906 
Q 1438 2700 1772 2700 
Q 2097 2700 2305 2904 
Q 2513 3109 2513 3406 
Q 2513 3716 2298 3927 
Q 2084 4138 1766 4138 
Q 1444 4138 1231 3931 
Q 1019 3725 1019 3438 
z
M 838 1322 
Q 838 1081 952 856 
Q 1066 631 1291 507 
Q 1516 384 1775 384 
Q 2178 384 2440 643 
Q 2703 903 2703 1303 
Q 2703 1709 2433 1975 
Q 2163 2241 1756 2241 
Q 1359 2241 1098 1978 
Q 838 1716 838 1322 
z
" transform="scale(0.015625)"/>
       </defs>
       <use xlink:href="#ArialMT-31"/>
       <use xlink:href="#ArialMT-38" transform="translate(55.615234 0)"/>
      </g>
     </g>
    </g>
    <g id="xtick_10">
     <g id="line2d_19">
      <g>
       <use xlink:href="#m93ae4f0a39" x="428.385827" y="190.346457" style="fill: #262626; stroke: #262626; stroke-width: 0.8"/>
      </g>
     </g>
     <g id="text_14">
      <!-- 24 -->
      <g style="fill: #262626" transform="translate(423.380983 203.288488) scale(0.09 -0.09)">
       <use xlink:href="#ArialMT-32"/>
       <use xlink:href="#ArialMT-34" transform="translate(55.615234 0)"/>
      </g>
     </g>
    </g>
    <g id="text_15">
     <!-- 时刻 / h -->
     <g style="fill: #262626" transform="translate(222.509037 216.825675) scale(0.1 -0.1)">
      <defs>
       <path id="MicrosoftYaHei-65f6" d="M 344 4728 
L 2500 4728 
L 2500 -366 
L 2006 -366 
L 2006 153 
L 838 153 
L 838 -441 
L 344 -441 
L 344 4728 
z
M 2706 3941 
L 4925 3941 
L 4925 5322 
L 5425 5322 
L 5425 3941 
L 6313 3941 
L 6313 3478 
L 5425 3478 
L 5425 116 
Q 5425 -722 4625 -722 
Q 4263 -722 3563 -703 
Q 3531 -478 3463 -178 
Q 4119 -228 4488 -228 
Q 4925 -228 4925 216 
L 4925 3478 
L 2706 3478 
L 2706 3941 
z
M 838 616 
L 2006 616 
L 2006 2234 
L 838 2234 
L 838 616 
z
M 2006 4266 
L 838 4266 
L 838 2684 
L 2006 2684 
L 2006 4266 
z
M 3406 2878 
Q 3906 1966 4163 1422 
Q 4000 1347 3663 1172 
Q 3419 1766 2963 2653 
L 3406 2878 
z
" transform="scale(0.015625)"/>
       <path id="MicrosoftYaHei-523b" d="M 3175 3478 
Q 2425 1747 413 272 
Q 256 491 75 672 
Q 1191 1394 1913 2294 
Q 1188 2256 569 2203 
L 438 2616 
Q 588 2741 694 2903 
Q 1053 3431 1350 4034 
L 275 4034 
L 275 4484 
L 2034 4484 
Q 1850 4800 1625 5134 
L 2056 5353 
Q 2325 4934 2488 4641 
L 2200 4484 
L 3900 4484 
L 3900 4034 
L 1903 4034 
Q 1422 3209 1050 2653 
Q 1303 2659 2206 2694 
Q 2516 3153 2731 3653 
L 3175 3478 
z
M 5475 5216 
L 5963 5216 
L 5963 28 
Q 5963 -722 5200 -728 
Q 4844 -734 4338 -722 
Q 4306 -478 4244 -209 
Q 4731 -266 5031 -266 
Q 5475 -266 5475 172 
L 5475 5216 
z
M 3750 2353 
Q 3359 1525 2806 850 
Q 3403 297 3994 -297 
L 3606 -666 
Q 3159 -141 2513 513 
Q 1756 -303 731 -878 
Q 581 -672 388 -478 
Q 2356 541 3306 2559 
L 3750 2353 
z
M 4269 4584 
L 4738 4584 
L 4738 634 
L 4269 634 
L 4269 4584 
z
" transform="scale(0.015625)"/>
       <path id="ArialMT-68" d="M 422 0 
L 422 4581 
L 984 4581 
L 984 2938 
Q 1378 3394 1978 3394 
Q 2347 3394 2619 3248 
Q 2891 3103 3008 2847 
Q 3125 2591 3125 2103 
L 3125 0 
L 2563 0 
L 2563 2103 
Q 2563 2525 2380 2717 
Q 2197 2909 1863 2909 
Q 1613 2909 1392 2779 
Q 1172 2650 1078 2428 
Q 984 2206 984 1816 
L 984 0 
L 422 0 
z
" transform="scale(0.015625)"/>
      </defs>
      <use xlink:href="#MicrosoftYaHei-65f6"/>
      <use xlink:href="#MicrosoftYaHei-523b" transform="translate(100 0)"/>
      <use xlink:href="#ArialMT-20" transform="translate(200 0)"/>
      <use xlink:href="#ArialMT-2f" transform="translate(227.783203 0)"/>
      <use xlink:href="#ArialMT-20" transform="translate(255.566406 0)"/>
      <use xlink:href="#ArialMT-68" transform="translate(283.349609 0)"/>
     </g>
    </g>
   </g>
   <g id="matplotlib.axis_4">
    <g id="ytick_5">
     <g id="line2d_20">
      <path d="M 50.527559 183.908216 
L 428.385827 183.908216 
" clip-path="url(#pef726e9d04)" style="fill: none; stroke: #e4e8eb; stroke-width: 0.5; stroke-linecap: square"/>
     </g>
     <g id="line2d_21">
      <g>
       <use xlink:href="#me51ed0e71e" x="50.527559" y="183.908216" style="fill: #262626; stroke: #262626; stroke-width: 0.8"/>
      </g>
     </g>
     <g id="text_16">
      <!-- 0.5 -->
      <g style="fill: #262626" transform="translate(31.517559 187.129231) scale(0.09 -0.09)">
       <defs>
        <path id="ArialMT-2e" d="M 581 0 
L 581 641 
L 1222 641 
L 1222 0 
L 581 0 
z
" transform="scale(0.015625)"/>
        <path id="ArialMT-35" d="M 266 1200 
L 856 1250 
Q 922 819 1161 601 
Q 1400 384 1738 384 
Q 2144 384 2425 690 
Q 2706 997 2706 1503 
Q 2706 1984 2436 2262 
Q 2166 2541 1728 2541 
Q 1456 2541 1237 2417 
Q 1019 2294 894 2097 
L 366 2166 
L 809 4519 
L 3088 4519 
L 3088 3981 
L 1259 3981 
L 1013 2750 
Q 1425 3038 1878 3038 
Q 2478 3038 2890 2622 
Q 3303 2206 3303 1553 
Q 3303 931 2941 478 
Q 2500 -78 1738 -78 
Q 1113 -78 717 272 
Q 322 622 266 1200 
z
" transform="scale(0.015625)"/>
       </defs>
       <use xlink:href="#ArialMT-30"/>
       <use xlink:href="#ArialMT-2e" transform="translate(55.615234 0)"/>
       <use xlink:href="#ArialMT-35" transform="translate(83.398438 0)"/>
      </g>
     </g>
    </g>
    <g id="ytick_6">
     <g id="line2d_22">
      <path d="M 50.527559 166.013774 
L 428.385827 166.013774 
" clip-path="url(#pef726e9d04)" style="fill: none; stroke: #e4e8eb; stroke-width: 0.5; stroke-linecap: square"/>
     </g>
     <g id="line2d_23">
      <g>
       <use xlink:href="#me51ed0e71e" x="50.527559" y="166.013774" style="fill: #262626; stroke: #262626; stroke-width: 0.8"/>
      </g>
     </g>
     <g id="text_17">
      <!-- 1.0 -->
      <g style="fill: #262626" transform="translate(31.517559 169.234789) scale(0.09 -0.09)">
       <use xlink:href="#ArialMT-31"/>
       <use xlink:href="#ArialMT-2e" transform="translate(55.615234 0)"/>
       <use xlink:href="#ArialMT-30" transform="translate(83.398438 0)"/>
      </g>
     </g>
    </g>
    <g id="text_18">
     <!-- 电价 -->
     <g style="fill: #262626" transform="translate(14.953184 180.192126) rotate(-90) scale(0.1 -0.1)">
      <defs>
       <path id="MicrosoftYaHei-7535" d="M 406 4497 
L 2713 4497 
L 2713 5297 
L 3231 5297 
L 3231 4497 
L 5544 4497 
L 5544 984 
L 3231 984 
L 3231 253 
Q 3231 -128 3631 -128 
L 5094 -128 
Q 5519 -128 5613 153 
Q 5713 459 5756 1034 
Q 5938 953 6275 841 
Q 6200 341 6106 -16 
Q 5950 -603 5256 -603 
L 3594 -603 
Q 2713 -603 2713 259 
L 2713 984 
L 925 984 
L 925 553 
L 406 553 
L 406 4497 
z
M 5025 1453 
L 5025 2522 
L 3231 2522 
L 3231 1453 
L 5025 1453 
z
M 925 1453 
L 2713 1453 
L 2713 2522 
L 925 2522 
L 925 1453 
z
M 5025 4028 
L 3231 4028 
L 3231 2966 
L 5025 2966 
L 5025 4028 
z
M 925 2966 
L 2713 2966 
L 2713 4028 
L 925 4028 
L 925 2966 
z
" transform="scale(0.015625)"/>
       <path id="MicrosoftYaHei-4ef7" d="M 69 2166 
Q 913 3484 1388 5259 
L 1875 5109 
Q 1650 4391 1400 3766 
L 1400 -853 
L 931 -853 
L 931 2722 
Q 619 2109 281 1622 
Q 163 1959 69 2166 
z
M 4319 5272 
L 4231 5116 
Q 5006 3747 6319 3141 
Q 6156 2953 5975 2703 
Q 4706 3434 3975 4703 
Q 3275 3497 2000 2603 
Q 1850 2822 1675 2997 
Q 3088 3884 3756 5272 
L 4319 5272 
z
M 3313 2828 
L 3313 1941 
Q 3313 134 2275 -891 
Q 2094 -709 1856 -541 
Q 2825 347 2825 1897 
L 2825 2828 
L 3313 2828 
z
M 4631 2828 
L 5119 2828 
L 5119 -828 
L 4631 -828 
L 4631 2828 
z
" transform="scale(0.015625)"/>
      </defs>
      <use xlink:href="#MicrosoftYaHei-7535"/>
      <use xlink:href="#MicrosoftYaHei-4ef7" transform="translate(100 0)"/>
     </g>
     <!-- 元/kWh -->
     <g style="fill: #262626" transform="translate(25.530059 186.581188) rotate(-90) scale(0.1 -0.1)">
      <defs>
       <path id="MicrosoftYaHei-5143" d="M 188 3084 
L 6225 3084 
L 6225 2609 
L 4250 2609 
L 4250 172 
Q 4250 -197 4625 -197 
L 5163 -197 
Q 5613 -197 5675 216 
Q 5731 566 5769 1103 
Q 6019 1016 6313 947 
Q 6250 409 6181 47 
Q 6056 -641 5275 -641 
L 4513 -641 
Q 3725 -641 3725 128 
L 3725 2609 
L 2450 2609 
L 2450 2409 
Q 2450 1084 2050 447 
Q 1650 -247 469 -847 
Q 244 -572 100 -428 
Q 1181 103 1556 691 
Q 1925 1253 1925 2384 
L 1925 2609 
L 188 2609 
L 188 3084 
z
M 788 4903 
L 5638 4903 
L 5638 4428 
L 788 4428 
L 788 4903 
z
" transform="scale(0.015625)"/>
      </defs>
      <use xlink:href="#MicrosoftYaHei-5143"/>
      <use xlink:href="#ArialMT-2f" transform="translate(100 0)"/>
      <use xlink:href="#ArialMT-6b" transform="translate(127.783203 0)"/>
      <use xlink:href="#ArialMT-57" transform="translate(177.783203 0)"/>
      <use xlink:href="#ArialMT-68" transform="translate(272.167969 0)"/>
     </g>
    </g>
   </g>
   <g id="patch_9">
    <path d="M 50.527559 186.59954 
L 63.647638 186.517225 
L 63.647638 186.467121 
L 76.767717 186.370491 
L 76.767717 186.295334 
L 82.015748 186.37407 
L 82.015748 186.43849 
L 87.26378 186.327544 
L 87.26378 186.173652 
L 92.511811 186.241651 
L 92.511811 186.288176 
L 97.759843 186.209441 
L 97.759843 186.1486 
L 124 186.080601 
L 124 185.976813 
L 129.248031 186.073443 
L 129.248031 186.295334 
L 131.872047 186.295334 
L 131.872047 185.915972 
L 134.496063 185.915972 
L 134.496063 186.409858 
L 137.120079 186.409858 
L 137.120079 188.514245 
L 139.744094 188.514245 
L 139.744094 181.374363 
L 142.36811 181.374363 
L 142.36811 169.238352 
L 144.992126 169.238352 
L 144.992126 168.275631 
L 147.616142 168.275631 
L 147.616142 170.458753 
L 152.864173 170.455174 
L 152.864173 171.020639 
L 155.488189 171.020639 
L 155.488189 171.589682 
L 158.112205 171.589682 
L 158.112205 171.976202 
L 160.73622 171.976202 
L 160.73622 172.842293 
L 163.360236 172.842293 
L 163.360236 173.271759 
L 165.984252 173.271759 
L 165.984252 174.445635 
L 168.608268 174.445635 
L 168.608268 177.111907 
L 171.232283 177.111907 
L 171.232283 171.024218 
L 173.856299 171.024218 
L 173.856299 160.226711 
L 176.480315 160.226711 
L 176.480315 159.990505 
L 179.104331 159.990505 
L 179.104331 162.592357 
L 181.728346 162.592357 
L 181.728346 162.975298 
L 184.352362 162.975298 
L 184.352362 163.830652 
L 186.976378 163.830652 
L 186.976378 164.474852 
L 189.600394 164.474852 
L 189.600394 164.725374 
L 192.224409 164.725374 
L 192.224409 165.487677 
L 194.848425 165.487677 
L 194.848425 166.292927 
L 197.472441 166.292927 
L 197.472441 167.08744 
L 200.096457 167.08744 
L 200.096457 168.082371 
L 202.720472 168.082371 
L 202.720472 167.556275 
L 205.344488 167.556275 
L 205.344488 166.096088 
L 207.968504 166.096088 
L 207.968504 166.303664 
L 210.59252 166.303664 
L 210.59252 167.488276 
L 213.216535 167.488276 
L 213.216535 167.627852 
L 215.840551 167.627852 
L 215.840551 166.589975 
L 218.464567 166.589975 
L 218.464567 173.207339 
L 221.088583 173.207339 
L 221.088583 183.818743 
L 223.712598 183.818743 
L 223.712598 185.11788 
L 226.336614 185.11788 
L 226.336614 183.883163 
L 228.96063 183.883163 
L 228.96063 184.527363 
L 231.584646 184.527363 
L 231.584646 184.677677 
L 234.208661 184.677677 
L 234.208661 185.11788 
L 236.832677 185.11788 
L 236.832677 185.941024 
L 242.080709 186.016181 
L 242.080709 185.515136 
L 244.704724 185.515136 
L 244.704724 185.830079 
L 247.32874 185.830079 
L 247.32874 187.082689 
L 249.952756 187.082689 
L 249.952756 181.467414 
L 252.576772 181.467414 
L 252.576772 172.173041 
L 255.200787 172.173041 
L 255.200787 170.895378 
L 257.824803 170.895378 
L 257.824803 171.682733 
L 260.448819 171.682733 
L 260.448819 170.959798 
L 265.69685 170.941903 
L 265.69685 169.499611 
L 268.320866 169.499611 
L 268.320866 166.89418 
L 270.944882 166.89418 
L 270.944882 166.006616 
L 276.192913 166.092509 
L 276.192913 165.043895 
L 278.816929 165.043895 
L 278.816929 162.771301 
L 281.440945 162.771301 
L 281.440945 168.247 
L 284.064961 168.247 
L 284.064961 177.845579 
L 286.688976 177.845579 
L 286.688976 178.181994 
L 289.312992 178.181994 
L 289.312992 175.97382 
L 291.937008 175.97382 
L 291.937008 175.648141 
L 294.561024 175.648141 
L 294.561024 174.839312 
L 297.185039 174.839312 
L 297.185039 173.805014 
L 299.809055 173.805014 
L 299.809055 172.974712 
L 302.433071 172.974712 
L 302.433071 172.201672 
L 305.057087 172.201672 
L 305.057087 171.314107 
L 307.681102 171.314107 
L 307.681102 170.34065 
L 310.305118 170.34065 
L 310.305118 169.506769 
L 312.929134 169.506769 
L 312.929134 169.009303 
L 315.55315 169.009303 
L 315.55315 168.647836 
L 318.177165 168.647836 
L 318.177165 167.939216 
L 320.801181 167.939216 
L 320.801181 166.937127 
L 323.425197 166.937127 
L 323.425197 166.50766 
L 326.049213 166.50766 
L 326.049213 166.872707 
L 328.673228 166.872707 
L 328.673228 163.358239 
L 331.297244 163.358239 
L 331.297244 157.735805 
L 333.92126 157.735805 
L 333.92126 156.848241 
L 336.545276 156.848241 
L 336.545276 157.256234 
L 339.169291 157.256234 
L 339.169291 156.905503 
L 344.417323 156.987817 
L 344.417323 155.702997 
L 347.041339 155.702997 
L 347.041339 153.609347 
L 349.665354 153.609347 
L 349.665354 153.40535 
L 352.28937 153.40535 
L 352.28937 153.684504 
L 354.913386 153.684504 
L 354.913386 153.548506 
L 368.033465 153.441139 
L 368.033465 153.845554 
L 370.65748 153.845554 
L 370.65748 153.527032 
L 373.281496 153.527032 
L 373.281496 151.870007 
L 375.905512 151.870007 
L 375.905512 158.047168 
L 378.529528 158.047168 
L 378.529528 168.404471 
L 381.153543 168.404471 
L 381.153543 169.349298 
L 383.777559 169.349298 
L 383.777559 168.264895 
L 389.025591 168.264895 
L 389.025591 166.47545 
L 391.649606 166.47545 
L 391.649606 174.016168 
L 394.273622 174.016168 
L 394.273622 186.739116 
L 396.897638 186.739116 
L 396.897638 187.991727 
L 399.521654 187.991727 
L 399.521654 186.170073 
L 402.145669 186.170073 
L 402.145669 186.778484 
L 407.393701 186.821431 
L 407.393701 186.624592 
L 425.761811 186.517225 
L 425.761811 186.499331 
L 428.385827 186.499331 
L 428.385827 186.499331 
" clip-path="url(#pef726e9d04)" style="fill: none; stroke: #e0461f; stroke-linejoin: miter"/>
   </g>
   <g id="patch_10">
    <path d="M 50.527559 190.346457 
L 50.527559 150.037795 
" style="fill: none; stroke: #262626; stroke-width: 0.65; stroke-linejoin: miter; stroke-linecap: square"/>
   </g>
   <g id="patch_11">
    <path d="M 50.527559 190.346457 
L 428.385827 190.346457 
" style="fill: none; stroke: #262626; stroke-width: 0.65; stroke-linejoin: miter; stroke-linecap: square"/>
   </g>
   <g id="text_19">
    <!-- (b) -->
    <g style="fill: #262626" transform="translate(42.970394 144.901033) scale(0.11 -0.11)">
     <defs>
      <path id="Arial-BoldMT-62" d="M 422 0 
L 422 4581 
L 1300 4581 
L 1300 2931 
Q 1706 3394 2263 3394 
Q 2869 3394 3266 2955 
Q 3663 2516 3663 1694 
Q 3663 844 3258 384 
Q 2853 -75 2275 -75 
Q 1991 -75 1714 67 
Q 1438 209 1238 488 
L 1238 0 
L 422 0 
z
M 1294 1731 
Q 1294 1216 1456 969 
Q 1684 619 2063 619 
Q 2353 619 2558 867 
Q 2763 1116 2763 1650 
Q 2763 2219 2556 2470 
Q 2350 2722 2028 2722 
Q 1713 2722 1503 2476 
Q 1294 2231 1294 1731 
z
" transform="scale(0.015625)"/>
     </defs>
     <use xlink:href="#Arial-BoldMT-28"/>
     <use xlink:href="#Arial-BoldMT-62" transform="translate(33.300781 0)"/>
     <use xlink:href="#Arial-BoldMT-29" transform="translate(94.384766 0)"/>
    </g>
   </g>
   <g id="text_20">
    <!-- 分时电价 -->
    <g style="fill: #262626" transform="translate(219.456693 141.037795) scale(0.1 -0.1)">
     <defs>
      <path id="MicrosoftYaHei-5206" d="M 900 2559 
L 5056 2559 
Q 5025 1497 4963 484 
Q 4888 -684 3856 -678 
Q 3350 -684 2788 -647 
Q 2750 -384 2700 -116 
Q 3181 -184 3775 -191 
Q 4400 -203 4463 541 
Q 4513 1216 4538 2097 
L 2616 2097 
Q 2541 1053 2181 416 
Q 1706 -422 588 -878 
Q 425 -666 231 -459 
Q 1269 -72 1725 666 
Q 2053 1225 2103 2097 
L 900 2097 
L 900 2559 
z
M 3488 5159 
L 3938 5353 
Q 4625 3678 6350 2847 
Q 6069 2553 5944 2372 
Q 4225 3366 3488 5159 
z
M 50 2766 
Q 1338 3678 2250 5253 
L 2694 5009 
Q 1744 3347 413 2341 
Q 281 2534 50 2766 
z
" transform="scale(0.015625)"/>
     </defs>
     <use xlink:href="#MicrosoftYaHei-5206"/>
     <use xlink:href="#MicrosoftYaHei-65f6" transform="translate(100 0)"/>
     <use xlink:href="#MicrosoftYaHei-7535" transform="translate(200 0)"/>
     <use xlink:href="#MicrosoftYaHei-4ef7" transform="translate(300 0)"/>
    </g>
   </g>
  </g>
 </g>
 <defs>
  <clipPath id="peec3df3e84">
   <rect x="50.527559" y="22.393701" width="377.858268" height="105.250394"/>
  </clipPath>
  <clipPath id="pef726e9d04">
   <rect x="50.527559" y="150.037795" width="377.858268" height="40.308661"/>
  </clipPath>
 </defs>
</svg>
